<?xml version="1.0" encoding="UTF-8" standalone="no"?>
<!DOCTYPE svg PUBLIC "-//W3C//DTD SVG 1.1//EN" "http://www.w3.org/Graphics/SVG/1.1/DTD/svg11.dtd">
<svg width="100%" height="100%" viewBox="0 0 500 700" version="1.1" xmlns="http://www.w3.org/2000/svg" xmlns:xlink="http://www.w3.org/1999/xlink" xml:space="preserve" xmlns:serif="http://www.serif.com/" style="fill-rule:evenodd;clip-rule:evenodd;stroke-linecap:square;stroke-linejoin:round;stroke-miterlimit:1.5;">
    <rect id="CardBackgroundBlue" x="0" y="0" width="500" height="700" style="fill:none;"/>
    <rect id="Inner" x="87.5" y="87.5" width="325" height="525" style="fill:none;"/>
    <clipPath id="_clip1">
        <rect x="87.5" y="87.5" width="325" height="525"/>
    </clipPath>
    <g clip-path="url(#_clip1)">
        <path d="M87.5,287.5l325,325m-325,-275l275,275m-275,-225l225,225m-225,-175l175,175m-175,-125l125,125m-125,-75l75,75m-75,-25l25,25m-25,-475l325,325m-325,-275l325,325m-325,-275l325,325m-325,-475l325,325m-275,-325l275,275m-225,-275l225,225m-175,-225l175,175m-125,-175l125,125m-75,-125l75,75m-25,-75l25,25m-200,-25l-125,125m75,-125l-75,75m25,-75l-25,25m325,175l-325,325m325,-275l-275,275m275,-225l-225,225m225,-175l-175,175m175,-125l-125,125m125,-75l-75,75m75,-25l-25,25m25,-475l-325,325m325,-275l-325,325m325,-275l-325,325m325,-475l-325,325m275,-325l-275,275m225,-275l-225,225m175,-225l-175,175" style="fill:none;stroke:rgb(1,99,172);stroke-width:3px;"/>
        <path d="M87.5,275l325,325m-325,-300l325,325m-325,-300l300,300m-300,-275l275,275m-275,-250l250,250m-250,-225l225,225m-225,-200l200,200m-200,-175l175,175m-175,-150l150,150m-150,-125l125,125m-125,-100l100,100m-100,-75l75,75m-75,-50l50,50m-50,-25l25,25m-25,-500l325,325m-325,-300l325,325m-325,-300l325,325m-325,-300l325,325m-325,-300l325,325m-325,-300l325,325m-312.5,-487.5l312.5,312.5m-325,-300l325,325m-262.5,-337.5l262.5,262.5m-287.5,-262.5l287.5,287.5m-212.5,-287.5l212.5,212.5m-237.5,-212.5l237.5,237.5m-162.5,-237.5l162.5,162.5m-187.5,-162.5l187.5,187.5m-112.5,-187.5l112.5,112.5m-137.5,-112.5l137.5,137.5m-62.5,-137.5l62.5,62.5m-87.5,-62.5l87.5,87.5m-12.5,-87.5l12.5,12.5m-37.5,-12.5l37.5,37.5m-0,150l-325,325m325,-300l-325,325m325,-300l-300,300m300,-275l-275,275m275,-250l-250,250m250,-225l-225,225m225,-200l-200,200m200,-175l-175,175m175,-150l-150,150m150,-125l-125,125m125,-100l-100,100m100,-75l-75,75m75,-50l-50,50m50,-25l-25,25m25,-500l-325,325m325,-300l-325,325m325,-300l-325,325m325,-300l-325,325m325,-300l-325,325m325,-300l-325,325m312.5,-487.5l-312.5,312.5m325,-300l-325,325m262.5,-337.5l-262.5,262.5m287.5,-262.5l-287.5,287.5m212.5,-287.5l-212.5,212.5m237.5,-212.5l-237.5,237.5m162.5,-237.5l-162.5,162.5m187.5,-162.5l-187.5,187.5m112.5,-187.5l-112.5,112.5m137.5,-112.5l-137.5,137.5m62.5,-137.5l-62.5,62.5m87.5,-62.5l-87.5,87.5m12.5,-87.5l-12.5,12.5m37.5,-12.5l-37.5,37.5" style="fill:none;stroke:rgb(1,99,172);stroke-width:1px;stroke-linecap:round;"/>
    </g>
    <rect x="87.5" y="87.5" width="325" height="525" style="fill:none;stroke:rgb(1,99,172);stroke-width:1px;stroke-linecap:round;"/>
    <rect x="75" y="75" width="350" height="550" style="fill:none;stroke:rgb(1,99,172);stroke-width:1px;stroke-linecap:round;"/>
    <path d="M462.5,50.25c0,-7.037 -5.713,-12.75 -12.75,-12.75l-399.5,-0c-7.037,-0 -12.75,5.713 -12.75,12.75l0,599.5c0,7.037 5.713,12.75 12.75,12.75l399.5,0c7.037,0 12.75,-5.713 12.75,-12.75l0,-599.5Z" style="fill:none;stroke:rgb(1,99,172);stroke-width:1px;stroke-linecap:round;"/>
    <path d="M475,47.5c0,-12.418 -10.082,-22.5 -22.5,-22.5l-405,-0c-12.418,-0 -22.5,10.082 -22.5,22.5l0,605c0,12.418 10.082,22.5 22.5,22.5l405,0c12.418,0 22.5,-10.082 22.5,-22.5l0,-605Z" style="fill:none;stroke:rgb(1,99,172);stroke-width:3px;stroke-linecap:round;"/>
</svg>
