<?xml version="1.0" encoding="UTF-8" standalone="no"?>
<!DOCTYPE svg PUBLIC "-//W3C//DTD SVG 1.1//EN" "http://www.w3.org/Graphics/SVG/1.1/DTD/svg11.dtd">
<svg width="100%" height="100%" viewBox="0 0 500 700" version="1.1" xmlns="http://www.w3.org/2000/svg" xmlns:xlink="http://www.w3.org/1999/xlink" xml:space="preserve" xmlns:serif="http://www.serif.com/" style="fill-rule:evenodd;clip-rule:evenodd;stroke-linejoin:round;stroke-miterlimit:2;">
    <rect id="Clubs10" x="0" y="0" width="500" height="700" style="fill:none;"/>
    <path d="M383.266,420.013l55.618,-0l-0.524,2.23c-7.215,1.53 -12.003,3.039 -14.364,4.525c-3.542,2.23 -6.439,5.532 -8.691,9.904c-2.251,4.373 -3.377,8.986 -3.377,13.839c-0,0.7 0.021,1.705 0.065,3.017c2.667,-5.422 5.914,-9.379 9.74,-11.871c3.826,-2.493 7.728,-3.739 11.707,-3.739c5.073,0 9.379,1.771 12.921,5.313c3.542,3.542 5.313,7.892 5.313,13.052c-0,5.072 -1.618,9.346 -4.854,12.822c-3.235,3.476 -6.908,5.214 -11.018,5.214c-2.624,0 -6.188,-1.115 -10.691,-3.344c1.836,3.06 3.028,5.367 3.574,6.919c0.547,1.552 0.82,3.225 0.82,5.017c0,4.985 -1.727,9.205 -5.181,12.659c-3.455,3.454 -7.761,5.181 -12.921,5.181c-5.16,0 -9.499,-1.727 -13.019,-5.181c-3.52,-3.454 -5.28,-7.565 -5.28,-12.331c-0,-3.891 1.508,-7.979 4.525,-12.264c-3.672,1.749 -5.881,2.732 -6.624,2.951c-1.18,0.35 -2.514,0.525 -4.001,0.525c-4.372,-0 -8.165,-1.717 -11.379,-5.149c-3.214,-3.432 -4.821,-7.685 -4.821,-12.757c0,-5.247 1.76,-9.652 5.28,-13.216c3.52,-3.563 7.75,-5.345 12.691,-5.345c2.755,-0 5.586,0.667 8.494,2c2.907,1.334 5.433,3.116 7.575,5.346c1.531,1.618 3.433,4.35 5.706,8.198c-0.175,-6.952 -1.235,-12.451 -3.181,-16.495c-1.945,-4.045 -4.93,-7.401 -8.952,-10.068c-2.711,-1.793 -7.587,-3.367 -14.627,-4.722l-0.524,-2.23Z" style="fill-rule:nonzero;"/>
    <path d="M399.956,533.407c6.537,-0 12.111,2.373 16.723,7.119c4.612,4.746 6.918,10.433 6.918,17.059l-0,68.237c-0,6.537 -2.306,12.201 -6.918,16.992c-4.612,4.791 -10.186,7.186 -16.723,7.186c-6.627,-0 -12.246,-2.395 -16.858,-7.186c-4.612,-4.791 -6.918,-10.455 -6.918,-16.992l0,-68.237c0,-6.626 2.306,-12.313 6.918,-17.059c4.612,-4.746 10.231,-7.119 16.858,-7.119Zm-0,101.817c2.545,0 4.726,-0.938 6.543,-2.816c1.817,-1.878 2.725,-4.068 2.725,-6.572l0,-68.131c0,-2.593 -0.908,-4.828 -2.725,-6.706c-1.817,-1.878 -3.998,-2.816 -6.543,-2.816c-2.635,-0 -4.861,0.938 -6.678,2.816c-1.816,1.878 -2.725,4.113 -2.725,6.706l0,68.131c0,2.504 0.909,4.694 2.725,6.572c1.817,1.878 4.043,2.816 6.678,2.816Zm46.341,12.761l-14.372,0l-0,-112.16l14.372,-0l0,112.16Z" style="fill-rule:nonzero;"/>
    <path d="M116.733,279.983l-55.617,-0l0.524,-2.23c7.215,-1.531 12.003,-3.039 14.364,-4.526c3.541,-2.23 6.438,-5.531 8.69,-9.903c2.252,-4.373 3.378,-8.986 3.378,-13.839c-0,-0.7 -0.022,-1.705 -0.066,-3.017c-2.667,5.422 -5.914,9.379 -9.74,11.871c-3.825,2.492 -7.728,3.738 -11.707,3.738c-5.072,0 -9.379,-1.77 -12.92,-5.312c-3.542,-3.542 -5.313,-7.892 -5.313,-13.052c0,-5.072 1.618,-9.346 4.854,-12.822c3.235,-3.476 6.908,-5.214 11.018,-5.214c2.624,0 6.187,1.115 10.691,3.345c-1.837,-3.061 -3.028,-5.367 -3.575,-6.919c-0.546,-1.553 -0.82,-3.225 -0.82,-5.018c0,-4.984 1.728,-9.204 5.182,-12.658c3.454,-3.454 7.761,-5.181 12.92,-5.181c5.16,-0 9.499,1.727 13.019,5.181c3.52,3.454 5.28,7.564 5.28,12.33c-0,3.892 -1.509,7.98 -4.526,12.265c3.673,-1.749 5.881,-2.733 6.625,-2.951c1.18,-0.35 2.514,-0.525 4,-0.525c4.373,-0 8.166,1.716 11.38,5.148c3.213,3.433 4.82,7.685 4.82,12.757c0,5.247 -1.76,9.652 -5.279,13.216c-3.52,3.563 -7.751,5.345 -12.691,5.345c-2.755,-0 -5.586,-0.667 -8.494,-2c-2.908,-1.334 -5.433,-3.116 -7.575,-5.346c-1.53,-1.618 -3.432,-4.35 -5.706,-8.198c0.175,6.952 1.235,12.45 3.181,16.495c1.946,4.044 4.93,7.4 8.952,10.067c2.711,1.793 7.587,3.367 14.626,4.723l0.525,2.23Z" style="fill-rule:nonzero;"/>
    <path d="M100.043,166.591c-6.537,-0 -12.111,-2.373 -16.723,-7.119c-4.611,-4.746 -6.917,-10.433 -6.917,-17.059l-0,-68.235c-0,-6.537 2.306,-12.201 6.917,-16.992c4.612,-4.791 10.186,-7.186 16.723,-7.186c6.627,-0 12.246,2.395 16.857,7.186c4.612,4.791 6.918,10.455 6.918,16.992l0,68.235c0,6.626 -2.306,12.313 -6.918,17.059c-4.611,4.746 -10.23,7.119 -16.857,7.119Zm0,-101.816c-2.545,0 -4.726,0.939 -6.543,2.817c-1.817,1.878 -2.725,4.068 -2.725,6.571l0,68.13c0,2.593 0.908,4.828 2.725,6.706c1.817,1.878 3.998,2.816 6.543,2.816c2.635,0 4.861,-0.938 6.677,-2.816c1.817,-1.878 2.726,-4.113 2.726,-6.706l-0,-68.13c-0,-2.503 -0.909,-4.693 -2.726,-6.571c-1.816,-1.878 -4.042,-2.817 -6.677,-2.817Zm-46.341,-12.76l14.373,-0l-0,112.158l-14.373,-0l0,-112.158Z" style="fill-rule:nonzero;"/>
</svg>
