<?xml version="1.0" encoding="UTF-8" standalone="no"?>
<!DOCTYPE svg PUBLIC "-//W3C//DTD SVG 1.1//EN" "http://www.w3.org/Graphics/SVG/1.1/DTD/svg11.dtd">
<svg width="100%" height="100%" viewBox="0 0 500 700" version="1.1" xmlns="http://www.w3.org/2000/svg" xmlns:xlink="http://www.w3.org/1999/xlink" xml:space="preserve" xmlns:serif="http://www.serif.com/" style="fill-rule:evenodd;clip-rule:evenodd;stroke-linejoin:round;stroke-miterlimit:2;">
    <rect id="ClubsEight" x="0" y="0" width="500" height="700" style="fill:none;"/>
    <path d="M383.227,419.945l55.65,-0l-0.525,2.231c-7.219,1.531 -12.009,3.041 -14.372,4.528c-3.544,2.231 -6.442,5.534 -8.695,9.909c-2.253,4.375 -3.38,8.991 -3.38,13.847c0,0.7 0.022,1.707 0.066,3.019c2.668,-5.425 5.917,-9.384 9.745,-11.878c3.828,-2.494 7.733,-3.741 11.714,-3.741c5.075,0 9.384,1.772 12.928,5.316c3.544,3.544 5.316,7.897 5.316,13.059c-0,5.075 -1.619,9.352 -4.856,12.83c-3.238,3.478 -6.913,5.217 -11.025,5.217c-2.625,0 -6.191,-1.115 -10.697,-3.347c1.837,3.063 3.029,5.371 3.576,6.924c0.547,1.553 0.821,3.226 0.821,5.02c-0,4.988 -1.729,9.209 -5.185,12.666c-3.456,3.456 -7.765,5.184 -12.928,5.184c-5.162,0 -9.505,-1.728 -13.026,-5.184c-3.522,-3.457 -5.283,-7.569 -5.283,-12.338c-0,-3.894 1.509,-7.984 4.528,-12.272c-3.675,1.75 -5.885,2.735 -6.628,2.953c-1.182,0.35 -2.516,0.525 -4.003,0.525c-4.375,0 -8.171,-1.717 -11.386,-5.151c-3.216,-3.435 -4.824,-7.689 -4.824,-12.764c0,-5.25 1.761,-9.658 5.283,-13.224c3.522,-3.565 7.755,-5.348 12.698,-5.348c2.757,-0 5.59,0.667 8.499,2.001c2.909,1.335 5.436,3.118 7.58,5.349c1.531,1.619 3.434,4.353 5.709,8.203c-0.175,-6.956 -1.236,-12.458 -3.183,-16.505c-1.947,-4.047 -4.933,-7.404 -8.958,-10.073c-2.712,-1.794 -7.59,-3.369 -14.634,-4.725l-0.525,-2.231Z" style="fill-rule:nonzero;"/>
    <path d="M411.216,534.344c9.946,-0 18.547,3.226 25.805,9.677c7.526,6.63 11.289,14.829 11.289,24.595c0,11.469 -4.972,20.653 -14.918,27.552c7.168,5.914 10.752,13.395 10.752,22.445c0,8.691 -3.36,15.993 -10.08,21.907c-6.451,5.645 -14.067,8.467 -22.848,8.467c-8.781,0 -16.397,-2.822 -22.848,-8.467c-6.72,-5.914 -10.08,-13.216 -10.08,-21.907c-0,-8.96 3.584,-16.442 10.752,-22.445c-9.946,-6.81 -14.918,-15.994 -14.918,-27.552c-0,-9.766 3.696,-17.92 11.088,-24.461c7.392,-6.541 16.06,-9.811 26.006,-9.811Zm0,99.859c4.749,0 8.915,-1.427 12.499,-4.282c4.032,-3.034 6.048,-6.825 6.048,-11.375c0,-4.55 -2.016,-8.342 -6.048,-11.376c-3.584,-2.855 -7.75,-4.282 -12.499,-4.282c-4.749,-0 -8.915,1.427 -12.499,4.282c-4.032,3.034 -6.048,6.826 -6.048,11.376c-0,4.55 2.016,8.341 6.048,11.375c3.584,2.855 7.75,4.282 12.499,4.282Zm0,-46.099c5.824,-0 10.976,-1.786 15.456,-5.357c4.838,-3.751 7.258,-8.483 7.258,-14.198c-0,-5.625 -2.42,-10.358 -7.258,-14.198c-4.48,-3.482 -9.632,-5.223 -15.456,-5.223c-5.824,-0 -10.976,1.741 -15.456,5.223c-4.838,3.84 -7.258,8.573 -7.258,14.198c0,5.715 2.42,10.447 7.258,14.198c4.48,3.571 9.632,5.357 15.456,5.357Z" style="fill-rule:nonzero;"/>
    <path d="M116.775,280.061l-55.652,-0l0.525,-2.231c7.219,-1.532 12.01,-3.041 14.373,-4.529c3.543,-2.231 6.442,-5.534 8.695,-9.909c2.253,-4.375 3.38,-8.991 3.38,-13.847c-0,-0.701 -0.022,-1.707 -0.066,-3.019c-2.669,5.425 -5.917,9.384 -9.745,11.878c-3.829,2.494 -7.733,3.741 -11.715,3.741c-5.075,-0 -9.384,-1.772 -12.928,-5.316c-3.544,-3.544 -5.316,-7.897 -5.316,-13.06c0,-5.075 1.619,-9.351 4.857,-12.83c3.237,-3.478 6.912,-5.217 11.025,-5.217c2.625,0 6.191,1.116 10.697,3.347c-1.838,-3.063 -3.03,-5.37 -3.577,-6.924c-0.547,-1.553 -0.82,-3.226 -0.82,-5.02c-0,-4.988 1.728,-9.21 5.184,-12.666c3.457,-3.456 7.766,-5.184 12.929,-5.184c5.163,-0 9.505,1.728 13.027,5.184c3.522,3.456 5.283,7.569 5.283,12.338c-0,3.894 -1.51,7.984 -4.529,12.272c3.676,-1.75 5.885,-2.734 6.629,-2.953c1.181,-0.35 2.515,-0.525 4.003,-0.525c4.375,-0 8.17,1.717 11.386,5.151c3.216,3.435 4.824,7.69 4.824,12.765c-0,5.25 -1.761,9.658 -5.283,13.224c-3.522,3.565 -7.755,5.348 -12.699,5.348c-2.756,0 -5.589,-0.667 -8.499,-2.001c-2.909,-1.335 -5.436,-3.118 -7.579,-5.349c-1.532,-1.619 -3.435,-4.353 -5.71,-8.203c0.175,6.956 1.236,12.458 3.183,16.505c1.947,4.047 4.933,7.405 8.958,10.073c2.713,1.794 7.591,3.369 14.635,4.726l0.525,2.231Z" style="fill-rule:nonzero;"/>
    <path d="M88.785,165.659c-9.946,-0 -18.548,-3.226 -25.805,-9.677c-7.527,-6.631 -11.29,-14.829 -11.29,-24.596c-0,-11.469 4.973,-20.653 14.918,-27.553c-7.168,-5.913 -10.752,-13.395 -10.752,-22.445c0,-8.691 3.36,-15.994 10.08,-21.908c6.452,-5.645 14.068,-8.467 22.849,-8.467c8.781,-0 16.397,2.822 22.849,8.467c6.72,5.914 10.08,13.217 10.08,21.908c-0,8.96 -3.584,16.442 -10.753,22.445c9.946,6.81 14.919,15.994 14.919,27.553c0,9.767 -3.696,17.92 -11.088,24.461c-7.392,6.541 -16.061,9.812 -26.007,9.812Zm-0,-99.862c-4.749,0 -8.915,1.428 -12.5,4.282c-4.032,3.034 -6.048,6.826 -6.048,11.376c0,4.55 2.016,8.342 6.048,11.376c3.585,2.855 7.751,4.282 12.5,4.282c4.749,0 8.915,-1.427 12.499,-4.282c4.033,-3.034 6.049,-6.826 6.049,-11.376c-0,-4.55 -2.016,-8.342 -6.049,-11.376c-3.584,-2.854 -7.75,-4.282 -12.499,-4.282Zm-0,46.1c-5.824,0 -10.976,1.786 -15.456,5.358c-4.839,3.75 -7.258,8.483 -7.258,14.198c-0,5.626 2.419,10.358 7.258,14.199c4.48,3.481 9.632,5.222 15.456,5.222c5.824,0 10.976,-1.741 15.456,-5.222c4.839,-3.841 7.258,-8.573 7.258,-14.199c0,-5.715 -2.419,-10.448 -7.258,-14.198c-4.48,-3.572 -9.632,-5.358 -15.456,-5.358Z" style="fill-rule:nonzero;"/>
</svg>
