<?xml version="1.0" encoding="UTF-8" standalone="no"?>
<!DOCTYPE svg PUBLIC "-//W3C//DTD SVG 1.1//EN" "http://www.w3.org/Graphics/SVG/1.1/DTD/svg11.dtd">
<svg width="100%" height="100%" viewBox="0 0 500 700" version="1.1" xmlns="http://www.w3.org/2000/svg" xmlns:xlink="http://www.w3.org/1999/xlink" xml:space="preserve" xmlns:serif="http://www.serif.com/" style="fill-rule:evenodd;clip-rule:evenodd;stroke-linejoin:round;stroke-miterlimit:2;">
    <rect id="ClubsQueen" x="0" y="0" width="500" height="700" style="fill:none;"/>
    <path d="M383.227,419.945l55.65,-0l-0.525,2.231c-7.219,1.531 -12.009,3.041 -14.372,4.528c-3.544,2.231 -6.442,5.534 -8.695,9.909c-2.253,4.375 -3.38,8.991 -3.38,13.847c0,0.7 0.022,1.707 0.066,3.019c2.668,-5.425 5.917,-9.384 9.745,-11.878c3.828,-2.494 7.733,-3.741 11.714,-3.741c5.075,0 9.384,1.772 12.928,5.316c3.544,3.544 5.316,7.897 5.316,13.059c-0,5.075 -1.619,9.352 -4.856,12.83c-3.238,3.478 -6.913,5.217 -11.025,5.217c-2.625,0 -6.191,-1.115 -10.697,-3.347c1.837,3.063 3.029,5.371 3.576,6.924c0.547,1.553 0.821,3.226 0.821,5.02c-0,4.988 -1.729,9.209 -5.185,12.666c-3.456,3.456 -7.765,5.184 -12.928,5.184c-5.162,0 -9.505,-1.728 -13.026,-5.184c-3.522,-3.457 -5.283,-7.569 -5.283,-12.338c-0,-3.894 1.509,-7.984 4.528,-12.272c-3.675,1.75 -5.885,2.735 -6.628,2.953c-1.182,0.35 -2.516,0.525 -4.003,0.525c-4.375,0 -8.171,-1.717 -11.386,-5.151c-3.216,-3.435 -4.824,-7.689 -4.824,-12.764c0,-5.25 1.761,-9.658 5.283,-13.224c3.522,-3.565 7.755,-5.348 12.698,-5.348c2.757,-0 5.59,0.667 8.499,2.001c2.909,1.335 5.436,3.118 7.58,5.349c1.531,1.619 3.434,4.353 5.709,8.203c-0.175,-6.956 -1.236,-12.458 -3.183,-16.505c-1.947,-4.047 -4.933,-7.404 -8.958,-10.073c-2.712,-1.794 -7.59,-3.369 -14.634,-4.725l-0.525,-2.231Z" style="fill-rule:nonzero;"/>
    <path d="M426.941,583.131c-5.466,-0.627 -10.931,-3.136 -16.397,-7.526c-3.405,-2.688 -7.75,-6.989 -13.037,-12.903l0,60.346c0,3.226 1.546,6.138 4.637,8.736c3.091,2.598 6.429,3.898 10.013,3.898c3.584,-0 6.944,-1.3 10.08,-3.898c3.136,-2.598 4.704,-5.51 4.704,-8.736l-0,-39.917Zm-22.848,-33.3l17.337,17.139c1.434,1.451 3.271,2.359 5.511,2.721l-0,-9.794c-0,-3.174 -1.568,-6.076 -4.704,-8.706c-3.136,-2.63 -6.496,-3.945 -10.08,-3.945c-2.778,0 -5.466,0.862 -8.064,2.585Zm-29.703,-14.277c5.287,-0 9.095,0.224 11.424,0.672c2.688,0.627 5.287,1.881 7.796,3.763c5.644,-4.57 11.827,-6.855 18.547,-6.855c7.257,0 13.753,2.599 19.488,7.796c6.003,5.376 9.005,11.648 9.005,18.816l-0,9.945l7.392,0l-0,12.903c-0.269,0.089 -2.733,0.268 -7.392,0.537l-0,39.917c-0,7.258 -3.002,13.574 -9.005,18.95c-5.735,5.197 -12.231,7.796 -19.488,7.796c-7.258,-0 -13.821,-2.644 -19.69,-7.93c-5.869,-5.286 -8.803,-11.558 -8.803,-18.816l-0,-63.302c-0,-3.047 0.627,-6.048 1.882,-9.005c-1.255,-0.807 -2.42,-1.344 -3.495,-1.613l-7.661,-0l0,-13.574Z" style="fill-rule:nonzero;"/>
    <path d="M116.775,280.061l-55.652,-0l0.525,-2.231c7.219,-1.532 12.01,-3.041 14.373,-4.529c3.543,-2.231 6.442,-5.534 8.695,-9.909c2.253,-4.375 3.38,-8.991 3.38,-13.847c-0,-0.701 -0.022,-1.707 -0.066,-3.019c-2.669,5.425 -5.917,9.384 -9.745,11.878c-3.829,2.494 -7.733,3.741 -11.715,3.741c-5.075,-0 -9.384,-1.772 -12.928,-5.316c-3.544,-3.544 -5.316,-7.897 -5.316,-13.06c0,-5.075 1.619,-9.351 4.857,-12.83c3.237,-3.478 6.912,-5.217 11.025,-5.217c2.625,0 6.191,1.116 10.697,3.347c-1.838,-3.063 -3.03,-5.37 -3.577,-6.924c-0.547,-1.553 -0.82,-3.226 -0.82,-5.02c-0,-4.988 1.728,-9.21 5.184,-12.666c3.457,-3.456 7.766,-5.184 12.929,-5.184c5.163,-0 9.505,1.728 13.027,5.184c3.522,3.456 5.283,7.569 5.283,12.338c-0,3.894 -1.51,7.984 -4.529,12.272c3.676,-1.75 5.885,-2.734 6.629,-2.953c1.181,-0.35 2.515,-0.525 4.003,-0.525c4.375,-0 8.17,1.717 11.386,5.151c3.216,3.435 4.824,7.69 4.824,12.765c-0,5.25 -1.761,9.658 -5.283,13.224c-3.522,3.565 -7.755,5.348 -12.699,5.348c-2.756,0 -5.589,-0.667 -8.499,-2.001c-2.909,-1.335 -5.436,-3.118 -7.579,-5.349c-1.532,-1.619 -3.435,-4.353 -5.71,-8.203c0.175,6.956 1.236,12.458 3.183,16.505c1.947,4.047 4.933,7.405 8.958,10.073c2.713,1.794 7.591,3.369 14.635,4.726l0.525,2.231Z" style="fill-rule:nonzero;"/>
    <path d="M73.06,116.87c5.466,0.628 10.931,3.136 16.397,7.527c3.405,2.688 7.751,6.989 13.037,12.903l0,-60.347c0,-3.226 -1.546,-6.138 -4.637,-8.737c-3.091,-2.598 -6.429,-3.897 -10.013,-3.897c-3.584,-0 -6.944,1.299 -10.08,3.897c-3.136,2.599 -4.704,5.511 -4.704,8.737l-0,39.917Zm22.848,33.301l-17.338,-17.139c-1.433,-1.451 -3.27,-2.359 -5.51,-2.721l-0,9.794c-0,3.174 1.568,6.076 4.704,8.706c3.136,2.63 6.496,3.945 10.08,3.945c2.778,0 5.466,-0.862 8.064,-2.585Zm29.703,14.278c-5.286,0 -9.094,-0.224 -11.424,-0.672c-2.688,-0.627 -5.286,-1.881 -7.795,-3.763c-5.645,4.57 -11.828,6.854 -18.548,6.854c-7.258,0 -13.754,-2.598 -19.488,-7.795c-6.004,-5.376 -9.005,-11.648 -9.005,-18.816l-0,-9.946l-7.393,-0l0,-12.903c0.269,-0.09 2.733,-0.269 7.393,-0.538l-0,-39.917c-0,-7.258 3.001,-13.575 9.005,-18.951c5.734,-5.197 12.23,-7.796 19.488,-7.796c7.258,0 13.821,2.644 19.69,7.93c5.869,5.287 8.804,11.559 8.804,18.817l-0,63.304c-0,3.046 -0.628,6.048 -1.882,9.005c1.254,0.806 2.419,1.344 3.494,1.612l7.661,0l0,13.575Z" style="fill-rule:nonzero;"/>
</svg>
