<?xml version="1.0" encoding="UTF-8" standalone="no"?>
<!DOCTYPE svg PUBLIC "-//W3C//DTD SVG 1.1//EN" "http://www.w3.org/Graphics/SVG/1.1/DTD/svg11.dtd">
<svg width="100%" height="100%" viewBox="0 0 500 700" version="1.1" xmlns="http://www.w3.org/2000/svg" xmlns:xlink="http://www.w3.org/1999/xlink" xml:space="preserve" xmlns:serif="http://www.serif.com/" style="fill-rule:evenodd;clip-rule:evenodd;stroke-linejoin:round;stroke-miterlimit:2;">
    <rect id="Clubs2" x="0" y="0" width="500" height="700" style="fill:none;"/>
    <path d="M383.227,419.945l55.65,-0l-0.525,2.231c-7.219,1.531 -12.009,3.041 -14.372,4.528c-3.544,2.231 -6.442,5.534 -8.695,9.909c-2.253,4.375 -3.38,8.991 -3.38,13.847c0,0.7 0.022,1.707 0.066,3.019c2.668,-5.425 5.917,-9.384 9.745,-11.878c3.828,-2.494 7.733,-3.741 11.714,-3.741c5.075,0 9.384,1.772 12.928,5.316c3.544,3.544 5.316,7.897 5.316,13.059c-0,5.075 -1.619,9.352 -4.856,12.83c-3.238,3.478 -6.913,5.217 -11.025,5.217c-2.625,0 -6.191,-1.115 -10.697,-3.347c1.837,3.063 3.029,5.371 3.576,6.924c0.547,1.553 0.821,3.226 0.821,5.02c-0,4.988 -1.729,9.209 -5.185,12.666c-3.456,3.456 -7.765,5.184 -12.928,5.184c-5.162,0 -9.505,-1.728 -13.026,-5.184c-3.522,-3.457 -5.283,-7.569 -5.283,-12.338c-0,-3.894 1.509,-7.984 4.528,-12.272c-3.675,1.75 -5.885,2.735 -6.628,2.953c-1.182,0.35 -2.516,0.525 -4.003,0.525c-4.375,0 -8.171,-1.717 -11.386,-5.151c-3.216,-3.435 -4.824,-7.689 -4.824,-12.764c0,-5.25 1.761,-9.658 5.283,-13.224c3.522,-3.565 7.755,-5.348 12.698,-5.348c2.757,-0 5.59,0.667 8.499,2.001c2.909,1.335 5.436,3.118 7.58,5.349c1.531,1.619 3.434,4.353 5.709,8.203c-0.175,-6.956 -1.236,-12.458 -3.183,-16.505c-1.947,-4.047 -4.933,-7.404 -8.958,-10.073c-2.712,-1.794 -7.59,-3.369 -14.634,-4.725l-0.525,-2.231Z" style="fill-rule:nonzero;"/>
    <path d="M389.578,565.122l-14.381,-0l-0,-29.031l72.038,0l0,7.392c0,13.53 -4.974,25.671 -14.922,36.423c-3.89,4.121 -13.16,11.513 -27.813,22.176c-9.948,7.257 -14.922,13.484 -14.922,18.681c-0,4.839 2.758,8.602 8.276,11.29c4.341,2.15 9.27,3.225 14.786,3.225c13.476,0 20.214,-4.48 20.214,-13.44c0,-1.881 -0.492,-3.987 -1.478,-6.316l13.44,-5.645c1.613,4.211 2.419,8.198 2.419,11.961c0,9.319 -3.507,16.487 -10.523,21.504c-6.294,4.48 -14.298,6.72 -24.011,6.72c-9.713,0 -18.123,-2.419 -25.228,-7.257c-8.184,-5.466 -12.276,-12.813 -12.276,-22.042c-0,-8.601 4.321,-16.665 12.963,-24.192c8.463,-6.451 16.926,-12.902 25.389,-19.353c9.904,-8.244 15.891,-17.024 17.961,-26.343l-41.932,0l-0,14.247Z" style="fill-rule:nonzero;"/>
    <path d="M116.775,280.061l-55.652,-0l0.525,-2.231c7.219,-1.532 12.01,-3.041 14.373,-4.529c3.543,-2.231 6.442,-5.534 8.695,-9.909c2.253,-4.375 3.38,-8.991 3.38,-13.847c-0,-0.701 -0.022,-1.707 -0.066,-3.019c-2.669,5.425 -5.917,9.384 -9.745,11.878c-3.829,2.494 -7.733,3.741 -11.715,3.741c-5.075,-0 -9.384,-1.772 -12.928,-5.316c-3.544,-3.544 -5.316,-7.897 -5.316,-13.06c0,-5.075 1.619,-9.351 4.857,-12.83c3.237,-3.478 6.912,-5.217 11.025,-5.217c2.625,0 6.191,1.116 10.697,3.347c-1.838,-3.063 -3.03,-5.37 -3.577,-6.924c-0.547,-1.553 -0.82,-3.226 -0.82,-5.02c-0,-4.988 1.728,-9.21 5.184,-12.666c3.457,-3.456 7.766,-5.184 12.929,-5.184c5.163,-0 9.505,1.728 13.027,5.184c3.522,3.456 5.283,7.569 5.283,12.338c-0,3.894 -1.51,7.984 -4.529,12.272c3.676,-1.75 5.885,-2.734 6.629,-2.953c1.181,-0.35 2.515,-0.525 4.003,-0.525c4.375,-0 8.17,1.717 11.386,5.151c3.216,3.435 4.824,7.69 4.824,12.765c-0,5.25 -1.761,9.658 -5.283,13.224c-3.522,3.565 -7.755,5.348 -12.699,5.348c-2.756,0 -5.589,-0.667 -8.499,-2.001c-2.909,-1.335 -5.436,-3.118 -7.579,-5.349c-1.532,-1.619 -3.435,-4.353 -5.71,-8.203c0.175,6.956 1.236,12.458 3.183,16.505c1.947,4.047 4.933,7.405 8.958,10.073c2.713,1.794 7.591,3.369 14.635,4.726l0.525,2.231Z" style="fill-rule:nonzero;"/>
    <path d="M110.424,134.88l14.381,0l0,29.032l-72.04,-0l-0,-7.393c-0,-13.53 4.974,-25.671 14.923,-36.423c3.889,-4.122 13.16,-11.514 27.813,-22.176c9.949,-7.258 14.923,-13.486 14.923,-18.682c-0,-4.839 -2.759,-8.602 -8.276,-11.29c-4.342,-2.151 -9.271,-3.226 -14.787,-3.226c-13.477,-0 -20.215,4.48 -20.215,13.44c0,1.882 0.493,3.988 1.478,6.317l-13.44,5.645c-1.613,-4.211 -2.419,-8.198 -2.419,-11.962c-0,-9.318 3.508,-16.487 10.523,-21.504c6.295,-4.48 14.299,-6.72 24.012,-6.72c9.714,-0 18.123,2.419 25.228,7.257c8.185,5.466 12.277,12.813 12.277,22.043c0,8.601 -4.321,16.666 -12.964,24.192c-8.463,6.451 -16.926,12.903 -25.389,19.354c-9.904,8.244 -15.891,17.025 -17.962,26.343l41.934,0l-0,-14.247Z" style="fill-rule:nonzero;"/>
</svg>
