<?xml version="1.0" encoding="UTF-8" standalone="no"?>
<!DOCTYPE svg PUBLIC "-//W3C//DTD SVG 1.1//EN" "http://www.w3.org/Graphics/SVG/1.1/DTD/svg11.dtd">
<svg width="100%" height="100%" viewBox="0 0 500 700" version="1.1" xmlns="http://www.w3.org/2000/svg" xmlns:xlink="http://www.w3.org/1999/xlink" xml:space="preserve" xmlns:serif="http://www.serif.com/" style="fill-rule:evenodd;clip-rule:evenodd;stroke-linejoin:round;stroke-miterlimit:2;">
    <rect id="Clubs7" x="0" y="0" width="500" height="700" style="fill:none;"/>
    <path d="M383.227,419.945l55.65,-0l-0.525,2.231c-7.219,1.531 -12.009,3.041 -14.372,4.528c-3.544,2.231 -6.442,5.534 -8.695,9.909c-2.253,4.375 -3.38,8.991 -3.38,13.847c0,0.7 0.022,1.707 0.066,3.019c2.668,-5.425 5.917,-9.384 9.745,-11.878c3.828,-2.494 7.733,-3.741 11.714,-3.741c5.075,0 9.384,1.772 12.928,5.316c3.544,3.544 5.316,7.897 5.316,13.059c-0,5.075 -1.619,9.352 -4.856,12.83c-3.238,3.478 -6.913,5.217 -11.025,5.217c-2.625,0 -6.191,-1.115 -10.697,-3.347c1.837,3.063 3.029,5.371 3.576,6.924c0.547,1.553 0.821,3.226 0.821,5.02c-0,4.988 -1.729,9.209 -5.185,12.666c-3.456,3.456 -7.765,5.184 -12.928,5.184c-5.162,0 -9.505,-1.728 -13.026,-5.184c-3.522,-3.457 -5.283,-7.569 -5.283,-12.338c-0,-3.894 1.509,-7.984 4.528,-12.272c-3.675,1.75 -5.885,2.735 -6.628,2.953c-1.182,0.35 -2.516,0.525 -4.003,0.525c-4.375,0 -8.171,-1.717 -11.386,-5.151c-3.216,-3.435 -4.824,-7.689 -4.824,-12.764c0,-5.25 1.761,-9.658 5.283,-13.224c3.522,-3.565 7.755,-5.348 12.698,-5.348c2.757,-0 5.59,0.667 8.499,2.001c2.909,1.335 5.436,3.118 7.58,5.349c1.531,1.619 3.434,4.353 5.709,8.203c-0.175,-6.956 -1.236,-12.458 -3.183,-16.505c-1.947,-4.047 -4.933,-7.404 -8.958,-10.073c-2.712,-1.794 -7.59,-3.369 -14.634,-4.725l-0.525,-2.231Z" style="fill-rule:nonzero;"/>
    <path d="M447.504,617.806l0,29.972l-65.722,-0l-7.392,-12.903c18.368,-26.342 31.136,-59.315 38.304,-98.918l15.725,-0c-6.361,36.288 -17.517,68.275 -33.465,95.961l37.094,0l0,-14.112l15.456,0Z" style="fill-rule:nonzero;"/>
    <path d="M116.775,280.061l-55.652,-0l0.525,-2.231c7.219,-1.532 12.01,-3.041 14.373,-4.529c3.543,-2.231 6.442,-5.534 8.695,-9.909c2.253,-4.375 3.38,-8.991 3.38,-13.847c-0,-0.701 -0.022,-1.707 -0.066,-3.019c-2.669,5.425 -5.917,9.384 -9.745,11.878c-3.829,2.494 -7.733,3.741 -11.715,3.741c-5.075,-0 -9.384,-1.772 -12.928,-5.316c-3.544,-3.544 -5.316,-7.897 -5.316,-13.06c0,-5.075 1.619,-9.351 4.857,-12.83c3.237,-3.478 6.912,-5.217 11.025,-5.217c2.625,0 6.191,1.116 10.697,3.347c-1.838,-3.063 -3.03,-5.37 -3.577,-6.924c-0.547,-1.553 -0.82,-3.226 -0.82,-5.02c-0,-4.988 1.728,-9.21 5.184,-12.666c3.457,-3.456 7.766,-5.184 12.929,-5.184c5.163,-0 9.505,1.728 13.027,5.184c3.522,3.456 5.283,7.569 5.283,12.338c-0,3.894 -1.51,7.984 -4.529,12.272c3.676,-1.75 5.885,-2.734 6.629,-2.953c1.181,-0.35 2.515,-0.525 4.003,-0.525c4.375,-0 8.17,1.717 11.386,5.151c3.216,3.435 4.824,7.69 4.824,12.765c-0,5.25 -1.761,9.658 -5.283,13.224c-3.522,3.565 -7.755,5.348 -12.699,5.348c-2.756,0 -5.589,-0.667 -8.499,-2.001c-2.909,-1.335 -5.436,-3.118 -7.579,-5.349c-1.532,-1.619 -3.435,-4.353 -5.71,-8.203c0.175,6.956 1.236,12.458 3.183,16.505c1.947,4.047 4.933,7.405 8.958,10.073c2.713,1.794 7.591,3.369 14.635,4.726l0.525,2.231Z" style="fill-rule:nonzero;"/>
    <path d="M52.496,82.194l0,-29.972l65.723,0l7.392,12.903c-18.368,26.343 -31.136,59.317 -38.304,98.921l-15.726,-0c6.362,-36.289 17.518,-68.277 33.467,-95.964l-37.096,0l0,14.112l-15.456,0Z" style="fill-rule:nonzero;"/>
</svg>
