<?xml version="1.0" encoding="UTF-8" standalone="no"?>
<!DOCTYPE svg PUBLIC "-//W3C//DTD SVG 1.1//EN" "http://www.w3.org/Graphics/SVG/1.1/DTD/svg11.dtd">
<svg width="100%" height="100%" viewBox="0 0 500 700" version="1.1" xmlns="http://www.w3.org/2000/svg" xmlns:xlink="http://www.w3.org/1999/xlink" xml:space="preserve" xmlns:serif="http://www.serif.com/" style="fill-rule:evenodd;clip-rule:evenodd;stroke-linejoin:round;stroke-miterlimit:2;">
    <rect id="DiamondsFive" x="0" y="0" width="500" height="700" style="fill:none;"/>
    <path d="M413.283,501.744c-3.867,-6.561 -8.625,-13.601 -14.274,-21.118c-6.518,-8.691 -11.776,-15.274 -15.773,-19.749c3.215,-3.389 8.473,-9.951 15.773,-19.684c5.91,-7.908 10.646,-14.991 14.209,-21.248c1.173,2.259 2.781,4.888 4.823,7.886c3.52,5.215 7.887,11.276 13.101,18.185c1.13,1.521 5.106,6.475 11.928,14.861c-4.389,4.997 -10.038,12.123 -16.947,21.378c-5.127,6.866 -9.407,13.362 -12.84,19.489Z" style="fill:rgb(210,0,0);fill-rule:nonzero;"/>
    <path d="M414.755,534.196c8.009,-0 15.351,2.758 22.025,8.276c5.873,5.072 10.456,11.613 13.749,19.622l-13.378,5.607c-2.141,-5.213 -4.995,-9.499 -8.562,-12.857c-4.192,-3.976 -8.83,-5.965 -13.914,-5.965c-7.135,0 -13.067,3.322 -17.793,9.966c-4.281,5.936 -6.422,12.536 -6.422,19.799c0,7.353 2.142,13.909 6.424,19.669c4.639,6.289 10.571,9.433 17.798,9.433c6.155,0 12.266,-3.292 18.333,-9.877l10.439,6.14l0,44.184l-54.195,-0l-0,-14.684l39.912,0l0,-14.283c-4.638,2.136 -9.411,3.204 -14.318,3.204c-11.242,-0 -20.61,-4.583 -28.103,-13.749c-7.049,-8.543 -10.573,-18.555 -10.573,-30.034c0,-11.48 3.471,-21.581 10.412,-30.302c7.564,-9.433 16.953,-14.149 28.166,-14.149Z" style="fill:rgb(210,0,0);fill-rule:nonzero;"/>
    <path d="M86.718,198.26c3.867,6.561 8.625,13.601 14.274,21.118c6.518,8.691 11.776,15.274 15.774,19.75c-3.216,3.389 -8.474,9.951 -15.774,19.684c-5.91,7.909 -10.646,14.992 -14.209,21.249c-1.173,-2.26 -2.781,-4.889 -4.824,-7.887c-3.519,-5.214 -7.886,-11.276 -13.101,-18.185c-1.13,-1.521 -5.106,-6.475 -11.928,-14.861c4.389,-4.997 10.038,-12.124 16.947,-21.379c5.128,-6.866 9.408,-13.362 12.841,-19.489Z" style="fill:rgb(210,0,0);fill-rule:nonzero;"/>
    <path d="M85.246,165.807c-8.009,0 -15.351,-2.759 -22.026,-8.276c-5.873,-5.073 -10.456,-11.614 -13.749,-19.623l13.378,-5.607c2.142,5.213 4.996,9.499 8.562,12.857c4.193,3.977 8.831,5.965 13.914,5.965c7.137,0 13.068,-3.322 17.794,-9.966c4.281,-5.936 6.422,-12.536 6.422,-19.8c0,-7.353 -2.141,-13.909 -6.424,-19.669c-4.639,-6.289 -10.571,-9.433 -17.798,-9.433c-6.156,-0 -12.267,3.292 -18.334,9.878l-10.439,-6.141l-0,-44.185l54.197,0l-0,14.684l-39.914,0l0,14.283c4.639,-2.135 9.412,-3.203 14.319,-3.203c11.242,-0 20.61,4.583 28.104,13.749c7.048,8.543 10.572,18.555 10.572,30.035c0,11.48 -3.47,21.581 -10.412,30.302c-7.564,9.433 -16.953,14.15 -28.166,14.15Z" style="fill:rgb(210,0,0);fill-rule:nonzero;"/>
</svg>
