<?xml version="1.0" encoding="UTF-8" standalone="no"?>
<!DOCTYPE svg PUBLIC "-//W3C//DTD SVG 1.1//EN" "http://www.w3.org/Graphics/SVG/1.1/DTD/svg11.dtd">
<svg width="100%" height="100%" viewBox="0 0 500 700" version="1.1" xmlns="http://www.w3.org/2000/svg" xmlns:xlink="http://www.w3.org/1999/xlink" xml:space="preserve" xmlns:serif="http://www.serif.com/" style="fill-rule:evenodd;clip-rule:evenodd;stroke-linejoin:round;stroke-miterlimit:2;">
    <rect id="Diamonds3" x="0" y="0" width="500" height="700" style="fill:none;"/>
    <path d="M413.283,501.744c-3.867,-6.561 -8.625,-13.601 -14.274,-21.118c-6.518,-8.691 -11.776,-15.274 -15.773,-19.749c3.215,-3.389 8.473,-9.951 15.773,-19.684c5.91,-7.908 10.646,-14.991 14.209,-21.248c1.173,2.259 2.781,4.888 4.823,7.886c3.52,5.215 7.887,11.276 13.101,18.185c1.13,1.521 5.106,6.475 11.928,14.861c-4.389,4.997 -10.038,12.123 -16.947,21.378c-5.127,6.866 -9.407,13.362 -12.84,19.489Z" style="fill:rgb(210,0,0);fill-rule:nonzero;"/>
    <path d="M414.621,534.73c8.543,-0 16.196,2.936 22.96,8.81c6.14,5.339 10.679,12.28 13.615,20.824l-13.644,4.805c-1.873,-5.569 -4.683,-10.121 -8.429,-13.657c-4.281,-4.066 -9.141,-6.099 -14.581,-6.099c-6.779,0 -12.62,2.663 -17.525,7.987c-4.905,5.325 -7.358,11.36 -7.358,18.105c0,6.655 2.098,12.068 6.292,16.24c4.194,4.171 9.683,6.257 16.466,6.257c3.123,-0 5.577,-0.4 7.362,-1.201c1.786,-0.801 3.928,-2.359 6.426,-4.672l10.308,10.145l-33.238,31.235l32.037,0l-0,-14.283l14.283,0l-0,28.967l-73.017,-0l-0,-9.194l28.47,-26.939c-8.999,-1.692 -16.194,-5.9 -21.585,-12.622c-5.391,-6.722 -8.087,-14.713 -8.087,-23.972c0,-10.775 3.871,-20.258 11.614,-28.449c7.742,-8.192 16.952,-12.287 27.631,-12.287Z" style="fill:rgb(210,0,0);fill-rule:nonzero;"/>
    <path d="M86.718,198.26c3.867,6.561 8.625,13.601 14.274,21.118c6.518,8.691 11.776,15.274 15.774,19.75c-3.216,3.389 -8.474,9.951 -15.774,19.684c-5.91,7.909 -10.646,14.992 -14.209,21.249c-1.173,-2.26 -2.781,-4.889 -4.824,-7.887c-3.519,-5.214 -7.886,-11.276 -13.101,-18.185c-1.13,-1.521 -5.106,-6.475 -11.928,-14.861c4.389,-4.997 10.038,-12.124 16.947,-21.379c5.128,-6.866 9.408,-13.362 12.841,-19.489Z" style="fill:rgb(210,0,0);fill-rule:nonzero;"/>
    <path d="M85.38,165.273c-8.544,0 -16.197,-2.937 -22.96,-8.81c-6.141,-5.34 -10.68,-12.281 -13.616,-20.825l13.645,-4.805c1.873,5.569 4.682,10.121 8.428,13.657c4.282,4.066 9.142,6.099 14.582,6.099c6.779,0 12.621,-2.662 17.526,-7.987c4.905,-5.325 7.357,-11.36 7.357,-18.106c0,-6.655 -2.097,-12.068 -6.292,-16.239c-4.194,-4.172 -9.683,-6.258 -16.466,-6.258c-3.123,0 -5.577,0.401 -7.362,1.202c-1.786,0.801 -3.928,2.358 -6.427,4.672l-10.308,-10.145l33.239,-31.237l-32.037,0l-0,14.283l-14.284,0l0,-28.967l73.019,0l0,9.194l-28.471,26.94c9,1.692 16.195,5.9 21.586,12.622c5.391,6.723 8.086,14.714 8.086,23.973c0,10.775 -3.871,20.258 -11.613,28.45c-7.743,8.191 -16.953,12.287 -27.632,12.287Z" style="fill:rgb(210,0,0);fill-rule:nonzero;"/>
</svg>
