<?xml version="1.0" encoding="UTF-8" standalone="no"?>
<!DOCTYPE svg PUBLIC "-//W3C//DTD SVG 1.1//EN" "http://www.w3.org/Graphics/SVG/1.1/DTD/svg11.dtd">
<svg width="100%" height="100%" viewBox="0 0 500 700" version="1.1" xmlns="http://www.w3.org/2000/svg" xmlns:xlink="http://www.w3.org/1999/xlink" xml:space="preserve" xmlns:serif="http://www.serif.com/" style="fill-rule:evenodd;clip-rule:evenodd;stroke-linejoin:round;stroke-miterlimit:2;">
    <rect id="DiamondsAce" x="0" y="0" width="500" height="700" style="fill:none;"/>
    <path d="M413.283,501.744c-3.867,-6.561 -8.625,-13.601 -14.274,-21.118c-6.518,-8.691 -11.776,-15.274 -15.773,-19.749c3.215,-3.389 8.473,-9.951 15.773,-19.684c5.91,-7.908 10.646,-14.991 14.209,-21.248c1.173,2.259 2.781,4.888 4.823,7.886c3.52,5.215 7.887,11.276 13.101,18.185c1.13,1.521 5.106,6.475 11.928,14.861c-4.389,4.997 -10.038,12.123 -16.947,21.378c-5.127,6.866 -9.407,13.362 -12.84,19.489Z" style="fill:rgb(210,0,0);fill-rule:nonzero;"/>
    <path d="M421.815,574.775l-17.291,0l8.679,45.999l8.612,-45.999Zm-1.854,-25.228l-0,-13.482l29.767,-0l0,13.482l-9.744,-0l-18.419,98.379l-16.688,-0l-18.557,-98.379l-9.742,-0l-0,-13.482l29.767,-0l0,13.482l-6.443,0.006l2.136,11.74l22.165,0l2.198,-11.74l-6.44,-0.006Z" style="fill:rgb(210,0,0);fill-rule:nonzero;"/>
    <path d="M86.718,198.26c3.867,6.561 8.625,13.601 14.274,21.118c6.518,8.691 11.776,15.274 15.774,19.75c-3.216,3.389 -8.474,9.951 -15.774,19.684c-5.91,7.909 -10.646,14.992 -14.209,21.249c-1.173,-2.26 -2.781,-4.889 -4.824,-7.887c-3.519,-5.214 -7.886,-11.276 -13.101,-18.185c-1.13,-1.521 -5.106,-6.475 -11.928,-14.861c4.389,-4.997 10.038,-12.124 16.947,-21.379c5.128,-6.866 9.408,-13.362 12.841,-19.489Z" style="fill:rgb(210,0,0);fill-rule:nonzero;"/>
    <path d="M78.186,125.226l17.291,0l-8.679,-45.999l-8.612,45.999Zm1.854,25.23l0,13.482l-29.768,0l-0,-13.482l9.745,-0l18.419,-98.382l16.688,0l18.557,98.382l9.743,-0l0,13.482l-29.768,0l-0,-13.482l6.443,-0.006l-2.136,-11.741l-22.165,-0l-2.199,11.741l6.441,0.006Z" style="fill:rgb(210,0,0);fill-rule:nonzero;"/>
</svg>
