<?xml version="1.0" encoding="UTF-8" standalone="no"?>
<!DOCTYPE svg PUBLIC "-//W3C//DTD SVG 1.1//EN" "http://www.w3.org/Graphics/SVG/1.1/DTD/svg11.dtd">
<svg width="100%" height="100%" viewBox="0 0 500 700" version="1.1" xmlns="http://www.w3.org/2000/svg" xmlns:xlink="http://www.w3.org/1999/xlink" xml:space="preserve" xmlns:serif="http://www.serif.com/" style="fill-rule:evenodd;clip-rule:evenodd;stroke-linejoin:round;stroke-miterlimit:2;">
    <rect id="Diamonds2" x="0" y="0" width="500" height="700" style="fill:none;"/>
    <path d="M413.283,501.744c-3.867,-6.561 -8.625,-13.601 -14.274,-21.118c-6.518,-8.691 -11.776,-15.274 -15.773,-19.749c3.215,-3.389 8.473,-9.951 15.773,-19.684c5.91,-7.908 10.646,-14.991 14.209,-21.248c1.173,2.259 2.781,4.888 4.823,7.886c3.52,5.215 7.887,11.276 13.101,18.185c1.13,1.521 5.106,6.475 11.928,14.861c-4.389,4.997 -10.038,12.123 -16.947,21.378c-5.127,6.866 -9.407,13.362 -12.84,19.489Z" style="fill:rgb(210,0,0);fill-rule:nonzero;"/>
    <path d="M391.662,565.698l-14.283,0l-0,-28.833l71.548,0l0,7.342c0,13.438 -4.94,25.496 -14.821,36.175c-3.863,4.093 -13.071,11.435 -27.623,22.025c-9.881,7.208 -14.821,13.393 -14.821,18.555c-0,4.805 2.74,8.543 8.219,11.212c4.312,2.136 9.208,3.204 14.686,3.204c13.385,0 20.077,-4.449 20.077,-13.349c0,-1.868 -0.489,-3.96 -1.468,-6.273l13.348,-5.607c1.602,4.183 2.403,8.143 2.403,11.88c0,9.255 -3.484,16.375 -10.451,21.358c-6.252,4.45 -14.201,6.674 -23.849,6.674c-9.647,0 -17.999,-2.402 -25.055,-7.208c-8.129,-5.428 -12.193,-12.725 -12.193,-21.891c-0,-8.544 4.291,-16.553 12.875,-24.028c8.405,-6.407 16.811,-12.815 25.216,-19.222c9.836,-8.187 15.783,-16.908 17.839,-26.163l-41.647,-0l-0,14.149Z" style="fill:rgb(210,0,0);fill-rule:nonzero;"/>
    <path d="M86.718,198.26c3.867,6.561 8.625,13.601 14.274,21.118c6.518,8.691 11.776,15.274 15.774,19.75c-3.216,3.389 -8.474,9.951 -15.774,19.684c-5.91,7.909 -10.646,14.992 -14.209,21.249c-1.173,-2.26 -2.781,-4.889 -4.824,-7.887c-3.519,-5.214 -7.886,-11.276 -13.101,-18.185c-1.13,-1.521 -5.106,-6.475 -11.928,-14.861c4.389,-4.997 10.038,-12.124 16.947,-21.379c5.128,-6.866 9.408,-13.362 12.841,-19.489Z" style="fill:rgb(210,0,0);fill-rule:nonzero;"/>
    <path d="M108.34,134.304l14.283,-0l0,28.833l-71.55,0l-0,-7.342c-0,-13.438 4.94,-25.496 14.821,-36.175c3.863,-4.094 13.071,-11.436 27.624,-22.026c9.881,-7.208 14.822,-13.393 14.822,-18.555c-0,-4.805 -2.74,-8.543 -8.22,-11.213c-4.312,-2.136 -9.208,-3.204 -14.686,-3.204c-13.385,0 -20.078,4.45 -20.078,13.349c0,1.869 0.49,3.96 1.469,6.274l-13.349,5.607c-1.602,-4.183 -2.403,-8.143 -2.403,-11.881c-0,-9.255 3.484,-16.374 10.452,-21.358c6.251,-4.45 14.201,-6.674 23.848,-6.674c9.648,-0 18,2.402 25.057,7.208c8.129,5.428 12.193,12.726 12.193,21.892c0,8.543 -4.292,16.553 -12.875,24.028c-8.406,6.408 -16.812,12.815 -25.217,19.223c-9.837,8.187 -15.783,16.908 -17.84,26.163l41.649,0l-0,-14.149Z" style="fill:rgb(210,0,0);fill-rule:nonzero;"/>
</svg>
