<?xml version="1.0" encoding="UTF-8" standalone="no"?>
<!DOCTYPE svg PUBLIC "-//W3C//DTD SVG 1.1//EN" "http://www.w3.org/Graphics/SVG/1.1/DTD/svg11.dtd">
<svg width="100%" height="100%" viewBox="0 0 500 700" version="1.1" xmlns="http://www.w3.org/2000/svg" xmlns:xlink="http://www.w3.org/1999/xlink" xml:space="preserve" xmlns:serif="http://www.serif.com/" style="fill-rule:evenodd;clip-rule:evenodd;stroke-linejoin:round;stroke-miterlimit:2;">
    <rect id="DiamondsJack" x="0" y="0" width="500" height="700" style="fill:none;"/>
    <path d="M413.283,501.744c-3.867,-6.561 -8.625,-13.601 -14.274,-21.118c-6.518,-8.691 -11.776,-15.274 -15.773,-19.749c3.215,-3.389 8.473,-9.951 15.773,-19.684c5.91,-7.908 10.646,-14.991 14.209,-21.248c1.173,2.259 2.781,4.888 4.823,7.886c3.52,5.215 7.887,11.276 13.101,18.185c1.13,1.521 5.106,6.475 11.928,14.861c-4.389,4.997 -10.038,12.123 -16.947,21.378c-5.127,6.866 -9.407,13.362 -12.84,19.489Z" style="fill:rgb(210,0,0);fill-rule:nonzero;"/>
    <path d="M433.977,575.309c-0,-5.428 -0,-7.697 -0,-6.807c-0,-5.34 -1.113,-9.611 -3.337,-12.815c-2.67,-3.827 -6.675,-5.74 -12.014,-5.74c-4.539,0 -8.187,1.646 -10.946,4.939c-2.492,3.026 -3.738,6.808 -3.738,11.346l0,66.076l12.148,-0l-0,15.885l-39.112,-0l0,-15.885l11.613,-0l0,-66.076c0,-8.988 2.715,-16.507 8.143,-22.559c5.696,-6.318 12.993,-9.477 21.892,-9.477c8.988,-0 16.374,3.114 22.158,9.344c5.785,6.229 8.633,13.838 8.544,22.826l-0,8.943l-15.351,0Z" style="fill:rgb(210,0,0);fill-rule:nonzero;"/>
    <path d="M86.718,198.26c3.867,6.561 8.625,13.601 14.274,21.118c6.518,8.691 11.776,15.274 15.774,19.75c-3.216,3.389 -8.474,9.951 -15.774,19.684c-5.91,7.909 -10.646,14.992 -14.209,21.249c-1.173,-2.26 -2.781,-4.889 -4.824,-7.887c-3.519,-5.214 -7.886,-11.276 -13.101,-18.185c-1.13,-1.521 -5.106,-6.475 -11.928,-14.861c4.389,-4.997 10.038,-12.124 16.947,-21.379c5.128,-6.866 9.408,-13.362 12.841,-19.489Z" style="fill:rgb(210,0,0);fill-rule:nonzero;"/>
    <path d="M66.024,124.692c-0,5.429 -0,7.698 -0,6.808c-0,5.34 1.112,9.612 3.337,12.815c2.67,3.827 6.674,5.74 12.014,5.74c4.539,0 8.187,-1.646 10.946,-4.939c2.492,-3.026 3.738,-6.808 3.738,-11.346l-0,-66.077l-12.148,-0l0,-15.886l39.113,0l-0,15.886l-11.614,-0l-0,66.077c-0,8.988 -2.714,16.508 -8.143,22.559c-5.695,6.319 -12.993,9.478 -21.892,9.478c-8.988,0 -16.375,-3.115 -22.159,-9.344c-5.785,-6.23 -8.633,-13.839 -8.544,-22.827l0,-8.944l15.352,0Z" style="fill:rgb(210,0,0);fill-rule:nonzero;"/>
</svg>
