<?xml version="1.0" encoding="UTF-8" standalone="no"?>
<!DOCTYPE svg PUBLIC "-//W3C//DTD SVG 1.1//EN" "http://www.w3.org/Graphics/SVG/1.1/DTD/svg11.dtd">
<svg width="100%" height="100%" viewBox="0 0 500 700" version="1.1" xmlns="http://www.w3.org/2000/svg" xmlns:xlink="http://www.w3.org/1999/xlink" xml:space="preserve" xmlns:serif="http://www.serif.com/" style="fill-rule:evenodd;clip-rule:evenodd;stroke-linejoin:round;stroke-miterlimit:2;">
    <rect id="DiamondsTen" x="0" y="0" width="500" height="700" style="fill:none;"/>
    <path d="M414.102,501.766c-3.865,-6.558 -8.62,-13.593 -14.266,-21.106c-6.514,-8.686 -11.769,-15.265 -15.764,-19.738c3.213,-3.387 8.468,-9.945 15.764,-19.673c5.906,-7.904 10.64,-14.983 14.201,-21.236c1.173,2.258 2.779,4.885 4.82,7.882c3.518,5.211 7.883,11.27 13.094,18.175c1.129,1.52 5.103,6.47 11.921,14.852c-4.386,4.994 -10.032,12.116 -16.937,21.366c-5.124,6.862 -9.402,13.355 -12.833,19.478Z" style="fill:rgb(210,0,0);fill-rule:nonzero;"/>
    <path d="M402.765,534.2c6.493,-0 12.03,2.356 16.61,7.07c4.58,4.714 6.871,10.362 6.871,16.943l-0,67.773c-0,6.493 -2.291,12.118 -6.871,16.877c-4.58,4.758 -10.117,7.137 -16.61,7.137c-6.581,0 -12.162,-2.379 -16.743,-7.137c-4.58,-4.759 -6.87,-10.384 -6.87,-16.877l-0,-67.773c-0,-6.581 2.29,-12.229 6.87,-16.943c4.581,-4.714 10.162,-7.07 16.743,-7.07Zm0,101.125c2.528,-0 4.694,-0.933 6.499,-2.798c1.804,-1.865 2.707,-4.04 2.707,-6.526l-0,-67.669c-0,-2.575 -0.903,-4.795 -2.707,-6.66c-1.805,-1.865 -3.971,-2.797 -6.499,-2.797c-2.616,-0 -4.827,0.932 -6.632,2.797c-1.804,1.865 -2.706,4.085 -2.706,6.66l-0,67.669c-0,2.486 0.902,4.661 2.706,6.526c1.805,1.865 4.016,2.798 6.632,2.798Zm46.027,12.674l-14.275,-0l0,-111.398l14.275,-0l0,111.398Z" style="fill:rgb(210,0,0);fill-rule:nonzero;"/>
    <path d="M85.897,198.231c3.865,6.558 8.62,13.593 14.266,21.106c6.514,8.685 11.769,15.264 15.764,19.737c-3.214,3.388 -8.468,9.945 -15.764,19.673c-5.906,7.903 -10.64,14.982 -14.201,21.236c-1.172,-2.259 -2.779,-4.886 -4.82,-7.882c-3.518,-5.212 -7.882,-11.27 -13.093,-18.175c-1.129,-1.52 -5.103,-6.47 -11.921,-14.852c4.386,-4.994 10.032,-12.116 16.937,-21.366c5.124,-6.861 9.401,-13.354 12.832,-19.477Z" style="fill:rgb(210,0,0);fill-rule:nonzero;"/>
    <path d="M97.234,165.798c-6.493,0 -12.029,-2.357 -16.61,-7.07c-4.58,-4.714 -6.87,-10.362 -6.87,-16.943l-0,-67.772c-0,-6.492 2.29,-12.117 6.87,-16.876c4.581,-4.758 10.117,-7.137 16.61,-7.137c6.581,-0 12.162,2.379 16.742,7.137c4.581,4.759 6.871,10.384 6.871,16.876l-0,67.772c-0,6.581 -2.29,12.229 -6.871,16.943c-4.58,4.713 -10.161,7.07 -16.742,7.07Zm-0,-101.123c-2.528,-0 -4.694,0.932 -6.499,2.797c-1.804,1.865 -2.706,4.041 -2.706,6.527l-0,67.667c-0,2.575 0.902,4.795 2.706,6.66c1.805,1.865 3.971,2.797 6.499,2.797c2.617,0 4.827,-0.932 6.632,-2.797c1.804,-1.865 2.706,-4.085 2.706,-6.66l0,-67.667c0,-2.486 -0.902,-4.662 -2.706,-6.527c-1.805,-1.865 -4.015,-2.797 -6.632,-2.797Zm-46.026,-12.674l14.275,0l-0,111.396l-14.275,-0l0,-111.396Z" style="fill:rgb(210,0,0);fill-rule:nonzero;"/>
</svg>
