<?xml version="1.0" encoding="UTF-8" standalone="no"?>
<!DOCTYPE svg PUBLIC "-//W3C//DTD SVG 1.1//EN" "http://www.w3.org/Graphics/SVG/1.1/DTD/svg11.dtd">
<svg width="100%" height="100%" viewBox="0 0 500 700" version="1.1" xmlns="http://www.w3.org/2000/svg" xmlns:xlink="http://www.w3.org/1999/xlink" xml:space="preserve" xmlns:serif="http://www.serif.com/" style="fill-rule:evenodd;clip-rule:evenodd;stroke-linejoin:round;stroke-miterlimit:2;">
    <rect id="Diamonds6" x="0" y="0" width="500" height="700" style="fill:none;"/>
    <path d="M413.283,501.744c-3.867,-6.561 -8.625,-13.601 -14.274,-21.118c-6.518,-8.691 -11.776,-15.274 -15.773,-19.749c3.215,-3.389 8.473,-9.951 15.773,-19.684c5.91,-7.908 10.646,-14.991 14.209,-21.248c1.173,2.259 2.781,4.888 4.823,7.886c3.52,5.215 7.887,11.276 13.101,18.185c1.13,1.521 5.106,6.475 11.928,14.861c-4.389,4.997 -10.038,12.123 -16.947,21.378c-5.127,6.866 -9.407,13.362 -12.84,19.489Z" style="fill:rgb(210,0,0);fill-rule:nonzero;"/>
    <path d="M448.927,583.185l0.134,0c0.178,-0.356 0.267,2.803 0.267,9.478c-0,15.662 -2.136,28.254 -6.408,37.776c-6.051,13.082 -15.974,19.622 -29.767,19.622c-6.763,0 -13.037,-1.824 -18.822,-5.472c-5.517,-3.56 -10.011,-8.366 -13.482,-14.417l12.414,-7.475c4.806,8.454 11.436,12.681 19.89,12.681c11.035,0 17.887,-8.232 20.557,-24.695c-6.141,5.429 -12.948,8.143 -20.424,8.143c-11.034,-0 -20.023,-4.583 -26.964,-13.749c-6.229,-8.276 -9.344,-18.154 -9.344,-29.634c0,-10.679 3.337,-20.112 10.012,-28.299c7.119,-8.632 15.884,-12.948 26.296,-12.948c5.162,-0 10.546,1.691 16.152,5.072c5.963,3.56 10.724,10.101 14.283,19.623c2.759,7.386 4.494,15.484 5.206,24.294Zm-35.641,-34.306c-6.407,0 -11.746,2.93 -16.018,8.789c-4.005,5.327 -6.007,11.275 -6.007,17.844c0,7.368 1.824,13.76 5.473,19.176c4.094,6.303 9.611,9.454 16.552,9.454c5.073,0 9.656,-2.441 13.749,-7.325c3.382,-4.082 5.874,-8.876 7.476,-14.381c-0.801,-8.167 -2.581,-15.18 -5.34,-21.038c-3.915,-8.346 -9.21,-12.519 -15.885,-12.519Z" style="fill:rgb(210,0,0);fill-rule:nonzero;"/>
    <path d="M86.718,198.26c3.867,6.561 8.625,13.601 14.274,21.118c6.518,8.691 11.776,15.274 15.774,19.75c-3.216,3.389 -8.474,9.951 -15.774,19.684c-5.91,7.909 -10.646,14.992 -14.209,21.249c-1.173,-2.26 -2.781,-4.889 -4.824,-7.887c-3.519,-5.214 -7.886,-11.276 -13.101,-18.185c-1.13,-1.521 -5.106,-6.475 -11.928,-14.861c4.389,-4.997 10.038,-12.124 16.947,-21.379c5.128,-6.866 9.408,-13.362 12.841,-19.489Z" style="fill:rgb(210,0,0);fill-rule:nonzero;"/>
    <path d="M51.073,116.817l-0.134,-0c-0.178,0.356 -0.267,-2.804 -0.267,-9.478c0,-15.663 2.136,-28.255 6.408,-37.778c6.051,-13.082 15.974,-19.622 29.768,-19.622c6.763,-0 13.037,1.824 18.822,5.473c5.518,3.559 10.012,8.365 13.482,14.416l-12.414,7.476c-4.806,-8.455 -11.436,-12.682 -19.89,-12.682c-11.035,0 -17.888,8.232 -20.557,24.696c6.14,-5.429 12.948,-8.143 20.424,-8.143c11.035,-0 20.023,4.583 26.964,13.749c6.23,8.277 9.345,18.155 9.345,29.635c-0,10.679 -3.338,20.112 -10.012,28.3c-7.12,8.632 -15.885,12.948 -26.297,12.948c-5.162,0 -10.546,-1.691 -16.153,-5.073c-5.962,-3.559 -10.723,-10.1 -14.283,-19.622c-2.759,-7.387 -4.494,-15.485 -5.206,-24.295Zm35.642,34.306c6.407,0 11.747,-2.93 16.018,-8.789c4.005,-5.327 6.007,-11.275 6.007,-17.844c0,-7.368 -1.824,-13.76 -5.473,-19.176c-4.094,-6.304 -9.611,-9.455 -16.552,-9.455c-5.073,-0 -9.656,2.441 -13.75,7.325c-3.382,4.083 -5.873,8.876 -7.475,14.381c0.801,8.168 2.581,15.181 5.339,21.039c3.916,8.346 9.211,12.519 15.886,12.519Z" style="fill:rgb(210,0,0);fill-rule:nonzero;"/>
</svg>
