<?xml version="1.0" encoding="UTF-8" standalone="no"?>
<!DOCTYPE svg PUBLIC "-//W3C//DTD SVG 1.1//EN" "http://www.w3.org/Graphics/SVG/1.1/DTD/svg11.dtd">
<svg width="100%" height="100%" viewBox="0 0 500 700" version="1.1" xmlns="http://www.w3.org/2000/svg" xmlns:xlink="http://www.w3.org/1999/xlink" xml:space="preserve" xmlns:serif="http://www.serif.com/" style="fill-rule:evenodd;clip-rule:evenodd;stroke-linejoin:round;stroke-miterlimit:2;">
    <rect id="DiamondsSeven" x="0" y="0" width="500" height="700" style="fill:none;"/>
    <path d="M413.283,501.744c-3.867,-6.561 -8.625,-13.601 -14.274,-21.118c-6.518,-8.691 -11.776,-15.274 -15.773,-19.749c3.215,-3.389 8.473,-9.951 15.773,-19.684c5.91,-7.908 10.646,-14.991 14.209,-21.248c1.173,2.259 2.781,4.888 4.823,7.886c3.52,5.215 7.887,11.276 13.101,18.185c1.13,1.521 5.106,6.475 11.928,14.861c-4.389,4.997 -10.038,12.123 -16.947,21.378c-5.127,6.866 -9.407,13.362 -12.84,19.489Z" style="fill:rgb(210,0,0);fill-rule:nonzero;"/>
    <path d="M449.194,618.025l0,29.767l-65.275,0l-7.341,-12.814c18.243,-26.164 30.924,-58.912 38.043,-98.246l15.618,-0c-6.318,36.041 -17.398,67.811 -33.238,95.309l36.842,-0l0,-14.016l15.351,-0Z" style="fill:rgb(210,0,0);fill-rule:nonzero;"/>
    <path d="M86.718,198.26c3.867,6.561 8.625,13.601 14.274,21.118c6.518,8.691 11.776,15.274 15.774,19.75c-3.216,3.389 -8.474,9.951 -15.774,19.684c-5.91,7.909 -10.646,14.992 -14.209,21.249c-1.173,-2.26 -2.781,-4.889 -4.824,-7.887c-3.519,-5.214 -7.886,-11.276 -13.101,-18.185c-1.13,-1.521 -5.106,-6.475 -11.928,-14.861c4.389,-4.997 10.038,-12.124 16.947,-21.379c5.128,-6.866 9.408,-13.362 12.841,-19.489Z" style="fill:rgb(210,0,0);fill-rule:nonzero;"/>
    <path d="M50.806,81.976l-0,-29.768l65.276,-0l7.342,12.815c-18.243,26.164 -30.925,58.913 -38.044,98.248l-15.619,-0c6.319,-36.042 17.398,-67.813 33.239,-95.311l-36.843,-0l0,14.016l-15.351,-0Z" style="fill:rgb(210,0,0);fill-rule:nonzero;"/>
</svg>
