<?xml version="1.0" encoding="UTF-8" standalone="no"?>
<!DOCTYPE svg PUBLIC "-//W3C//DTD SVG 1.1//EN" "http://www.w3.org/Graphics/SVG/1.1/DTD/svg11.dtd">
<svg width="100%" height="100%" viewBox="0 0 500 700" version="1.1" xmlns="http://www.w3.org/2000/svg" xmlns:xlink="http://www.w3.org/1999/xlink" xml:space="preserve" xmlns:serif="http://www.serif.com/" style="fill-rule:evenodd;clip-rule:evenodd;stroke-linejoin:round;stroke-miterlimit:2;">
    <rect id="DiamondsEight" x="0" y="0" width="500" height="700" style="fill:none;"/>
    <path d="M413.283,501.744c-3.867,-6.561 -8.625,-13.601 -14.274,-21.118c-6.518,-8.691 -11.776,-15.274 -15.773,-19.749c3.215,-3.389 8.473,-9.951 15.773,-19.684c5.91,-7.908 10.646,-14.991 14.209,-21.248c1.173,2.259 2.781,4.888 4.823,7.886c3.52,5.215 7.887,11.276 13.101,18.185c1.13,1.521 5.106,6.475 11.928,14.861c-4.389,4.997 -10.038,12.123 -16.947,21.378c-5.127,6.866 -9.407,13.362 -12.84,19.489Z" style="fill:rgb(210,0,0);fill-rule:nonzero;"/>
    <path d="M413.153,535.13c9.878,0 18.421,3.204 25.629,9.611c7.475,6.585 11.213,14.728 11.213,24.428c-0,11.391 -4.939,20.512 -14.817,27.365c7.119,5.873 10.679,13.304 10.679,22.292c-0,8.632 -3.337,15.885 -10.012,21.758c-6.407,5.606 -13.971,8.41 -22.692,8.41c-8.721,-0 -16.285,-2.804 -22.693,-8.41c-6.674,-5.873 -10.011,-13.126 -10.011,-21.758c-0,-8.899 3.559,-16.33 10.679,-22.292c-9.878,-6.764 -14.817,-15.885 -14.817,-27.365c-0,-9.7 3.671,-17.798 11.012,-24.294c7.342,-6.497 15.952,-9.745 25.83,-9.745Zm-0,99.18c4.716,0 8.854,-1.417 12.414,-4.253c4.005,-3.013 6.007,-6.779 6.007,-11.298c-0,-4.519 -2.002,-8.285 -6.007,-11.298c-3.56,-2.835 -7.698,-4.253 -12.414,-4.253c-4.717,-0 -8.855,1.418 -12.414,4.253c-4.005,3.013 -6.007,6.779 -6.007,11.298c-0,4.519 2.002,8.285 6.007,11.298c3.559,2.836 7.697,4.253 12.414,4.253Zm-0,-45.786c5.784,0 10.901,-1.773 15.351,-5.32c4.805,-3.725 7.208,-8.426 7.208,-14.102c-0,-5.587 -2.403,-10.287 -7.208,-14.101c-4.45,-3.458 -9.567,-5.187 -15.351,-5.187c-5.785,-0 -10.901,1.729 -15.351,5.187c-4.805,3.814 -7.208,8.514 -7.208,14.101c-0,5.676 2.403,10.377 7.208,14.102c4.45,3.547 9.566,5.32 15.351,5.32Z" style="fill:rgb(210,0,0);fill-rule:nonzero;"/>
    <path d="M86.718,198.26c3.867,6.561 8.625,13.601 14.274,21.118c6.518,8.691 11.776,15.274 15.774,19.75c-3.216,3.389 -8.474,9.951 -15.774,19.684c-5.91,7.909 -10.646,14.992 -14.209,21.249c-1.173,-2.26 -2.781,-4.889 -4.824,-7.887c-3.519,-5.214 -7.886,-11.276 -13.101,-18.185c-1.13,-1.521 -5.106,-6.475 -11.928,-14.861c4.389,-4.997 10.038,-12.124 16.947,-21.379c5.128,-6.866 9.408,-13.362 12.841,-19.489Z" style="fill:rgb(210,0,0);fill-rule:nonzero;"/>
    <path d="M86.848,164.873c-9.878,-0 -18.421,-3.204 -25.63,-9.612c-7.475,-6.585 -11.213,-14.728 -11.213,-24.428c0,-11.391 4.939,-20.513 14.817,-27.365c-7.119,-5.874 -10.679,-13.305 -10.679,-22.293c0,-8.632 3.337,-15.885 10.012,-21.759c6.407,-5.606 13.972,-8.41 22.693,-8.41c8.721,0 16.286,2.804 22.693,8.41c6.675,5.874 10.012,13.127 10.012,21.759c-0,8.899 -3.56,16.33 -10.679,22.293c9.878,6.763 14.817,15.885 14.817,27.365c-0,9.7 -3.671,17.798 -11.013,24.295c-7.342,6.496 -15.952,9.745 -25.83,9.745Zm0,-99.183c-4.717,0 -8.855,1.418 -12.414,4.253c-4.005,3.013 -6.007,6.78 -6.007,11.299c-0,4.519 2.002,8.285 6.007,11.298c3.559,2.836 7.697,4.253 12.414,4.253c4.717,0 8.855,-1.417 12.414,-4.253c4.005,-3.013 6.007,-6.779 6.007,-11.298c0,-4.519 -2.002,-8.286 -6.007,-11.299c-3.559,-2.835 -7.697,-4.253 -12.414,-4.253Zm0,45.787c-5.785,-0 -10.902,1.774 -15.351,5.321c-4.806,3.725 -7.209,8.426 -7.209,14.102c0,5.587 2.403,10.287 7.209,14.102c4.449,3.458 9.566,5.187 15.351,5.187c5.785,-0 10.902,-1.729 15.351,-5.187c4.806,-3.815 7.209,-8.515 7.209,-14.102c-0,-5.676 -2.403,-10.377 -7.209,-14.102c-4.449,-3.547 -9.566,-5.321 -15.351,-5.321Z" style="fill:rgb(210,0,0);fill-rule:nonzero;"/>
</svg>
