<?xml version="1.0" encoding="UTF-8" standalone="no"?>
<!DOCTYPE svg PUBLIC "-//W3C//DTD SVG 1.1//EN" "http://www.w3.org/Graphics/SVG/1.1/DTD/svg11.dtd">
<svg width="100%" height="100%" viewBox="0 0 500 700" version="1.1" xmlns="http://www.w3.org/2000/svg" xmlns:xlink="http://www.w3.org/1999/xlink" xml:space="preserve" xmlns:serif="http://www.serif.com/" style="fill-rule:evenodd;clip-rule:evenodd;stroke-linejoin:round;stroke-miterlimit:2;">
    <rect id="DiamondsQueen" x="0" y="0" width="500" height="700" style="fill:none;"/>
    <path d="M413.283,501.744c-3.867,-6.561 -8.625,-13.601 -14.274,-21.118c-6.518,-8.691 -11.776,-15.274 -15.773,-19.749c3.215,-3.389 8.473,-9.951 15.773,-19.684c5.91,-7.908 10.646,-14.991 14.209,-21.248c1.173,2.259 2.781,4.888 4.823,7.886c3.52,5.215 7.887,11.276 13.101,18.185c1.13,1.521 5.106,6.475 11.928,14.861c-4.389,4.997 -10.038,12.123 -16.947,21.378c-5.127,6.866 -9.407,13.362 -12.84,19.489Z" style="fill:rgb(210,0,0);fill-rule:nonzero;"/>
    <path d="M428.771,583.586c-5.429,-0.623 -10.857,-3.115 -16.286,-7.476c-3.381,-2.669 -7.697,-6.941 -12.948,-12.814l0,59.935c0,3.203 1.535,6.096 4.606,8.676c3.07,2.581 6.385,3.871 9.944,3.871c3.56,0 6.897,-1.29 10.012,-3.871c3.114,-2.58 4.672,-5.473 4.672,-8.676l-0,-39.645Zm-22.693,-33.074l17.22,17.022c1.424,1.442 3.248,2.343 5.473,2.703l-0,-9.728c-0,-3.152 -1.558,-6.034 -4.672,-8.646c-3.115,-2.612 -6.452,-3.918 -10.012,-3.918c-2.758,-0 -5.428,0.856 -8.009,2.567Zm-29.5,-14.18c5.25,-0 9.032,0.222 11.346,0.667c2.67,0.623 5.25,1.869 7.742,3.738c5.607,-4.539 11.747,-6.808 18.421,-6.808c7.209,-0 13.66,2.58 19.356,7.742c5.962,5.339 8.943,11.569 8.943,18.688l0,9.878l7.342,-0l0,12.815c-0.267,0.089 -2.714,0.267 -7.342,0.534l0,39.645c0,7.208 -2.981,13.482 -8.943,18.821c-5.696,5.162 -12.147,7.743 -19.356,7.743c-7.208,-0 -13.727,-2.626 -19.555,-7.876c-5.829,-5.251 -8.744,-11.48 -8.744,-18.688l0,-62.872c0,-3.026 0.623,-6.007 1.869,-8.944c-1.246,-0.8 -2.403,-1.334 -3.471,-1.601l-7.608,-0l-0,-13.482Z" style="fill:rgb(210,0,0);fill-rule:nonzero;"/>
    <path d="M86.718,198.26c3.867,6.561 8.625,13.601 14.274,21.118c6.518,8.691 11.776,15.274 15.774,19.75c-3.216,3.389 -8.474,9.951 -15.774,19.684c-5.91,7.909 -10.646,14.992 -14.209,21.249c-1.173,-2.26 -2.781,-4.889 -4.824,-7.887c-3.519,-5.214 -7.886,-11.276 -13.101,-18.185c-1.13,-1.521 -5.106,-6.475 -11.928,-14.861c4.389,-4.997 10.038,-12.124 16.947,-21.379c5.128,-6.866 9.408,-13.362 12.841,-19.489Z" style="fill:rgb(210,0,0);fill-rule:nonzero;"/>
    <path d="M71.23,116.416c5.428,0.623 10.857,3.115 16.285,7.475c3.382,2.67 7.698,6.942 12.949,12.815l-0,-59.936c-0,-3.204 -1.535,-6.096 -4.605,-8.677c-3.071,-2.581 -6.386,-3.871 -9.945,-3.871c-3.56,-0 -6.897,1.29 -10.012,3.871c-3.115,2.581 -4.672,5.473 -4.672,8.677l-0,39.646Zm22.693,33.074l-17.22,-17.022c-1.424,-1.442 -3.248,-2.343 -5.473,-2.703l-0,9.728c-0,3.152 1.557,6.034 4.672,8.647c3.115,2.612 6.452,3.918 10.012,3.918c2.758,-0 5.428,-0.856 8.009,-2.568Zm29.501,14.181c-5.251,0 -9.033,-0.222 -11.347,-0.667c-2.669,-0.623 -5.25,-1.869 -7.742,-3.738c-5.606,4.539 -11.747,6.808 -18.421,6.808c-7.209,0 -13.661,-2.581 -19.356,-7.742c-5.963,-5.34 -8.944,-11.569 -8.944,-18.689l-0,-9.878l-7.342,-0l-0,-12.815c0.267,-0.089 2.714,-0.267 7.342,-0.534l-0,-39.646c-0,-7.209 2.981,-13.483 8.944,-18.822c5.695,-5.162 12.147,-7.743 19.356,-7.743c7.208,0 13.727,2.626 19.556,7.876c5.829,5.251 8.743,11.48 8.743,18.689l0,62.873c0,3.026 -0.623,6.007 -1.869,8.944c1.246,0.801 2.403,1.335 3.471,1.602l7.609,-0l0,13.482Z" style="fill:rgb(210,0,0);fill-rule:nonzero;"/>
</svg>
