<?xml version="1.0" encoding="UTF-8" standalone="no"?>
<!DOCTYPE svg PUBLIC "-//W3C//DTD SVG 1.1//EN" "http://www.w3.org/Graphics/SVG/1.1/DTD/svg11.dtd">
<svg width="100%" height="100%" viewBox="0 0 500 700" version="1.1" xmlns="http://www.w3.org/2000/svg" xmlns:xlink="http://www.w3.org/1999/xlink" xml:space="preserve" xmlns:serif="http://www.serif.com/" style="fill-rule:evenodd;clip-rule:evenodd;stroke-linejoin:round;stroke-miterlimit:2;">
    <rect id="Hearts8" x="0" y="0" width="500" height="700" style="fill:none;"/>
    <path d="M413.023,419.945c1.347,5.127 3.269,9.939 5.768,14.437c2.498,4.497 7.332,11.482 14.502,20.955c5.258,6.952 8.495,11.362 9.712,13.231c1.999,3.042 3.443,5.833 4.334,8.375c0.891,2.542 1.336,5.117 1.336,7.724c0,4.823 -1.608,8.864 -4.823,12.123c-3.215,3.259 -7.191,4.889 -11.928,4.889c-4.779,-0 -8.929,-1.695 -12.449,-5.084c-2.65,-2.521 -4.801,-6.279 -6.452,-11.276c-1.434,4.91 -3.455,8.647 -6.062,11.211c-3.607,3.476 -7.778,5.214 -12.514,5.214c-4.693,-0 -8.669,-1.619 -11.928,-4.856c-3.259,-3.237 -4.888,-7.094 -4.888,-11.569c-0,-3.911 0.955,-7.985 2.867,-12.221c1.912,-4.237 5.606,-9.788 11.081,-16.653c7.126,-8.995 12.319,-16.382 15.577,-22.161c2.564,-4.563 4.519,-9.342 5.867,-14.339Z" style="fill:rgb(210,0,0);fill-rule:nonzero;"/>
    <path d="M413.153,535.13c9.878,0 18.421,3.204 25.629,9.611c7.475,6.585 11.213,14.728 11.213,24.428c-0,11.391 -4.939,20.512 -14.817,27.365c7.119,5.873 10.679,13.304 10.679,22.292c-0,8.632 -3.337,15.885 -10.012,21.758c-6.407,5.606 -13.971,8.41 -22.692,8.41c-8.721,-0 -16.285,-2.804 -22.693,-8.41c-6.674,-5.873 -10.011,-13.126 -10.011,-21.758c-0,-8.899 3.559,-16.33 10.679,-22.292c-9.878,-6.764 -14.817,-15.885 -14.817,-27.365c-0,-9.7 3.671,-17.798 11.012,-24.294c7.342,-6.497 15.952,-9.745 25.83,-9.745Zm-0,99.18c4.716,0 8.854,-1.417 12.414,-4.253c4.005,-3.013 6.007,-6.779 6.007,-11.298c-0,-4.519 -2.002,-8.285 -6.007,-11.298c-3.56,-2.835 -7.698,-4.253 -12.414,-4.253c-4.717,-0 -8.855,1.418 -12.414,4.253c-4.005,3.013 -6.007,6.779 -6.007,11.298c-0,4.519 2.002,8.285 6.007,11.298c3.559,2.836 7.697,4.253 12.414,4.253Zm-0,-45.786c5.784,0 10.901,-1.773 15.351,-5.32c4.805,-3.725 7.208,-8.426 7.208,-14.102c-0,-5.587 -2.403,-10.287 -7.208,-14.101c-4.45,-3.458 -9.567,-5.187 -15.351,-5.187c-5.785,-0 -10.901,1.729 -15.351,5.187c-4.805,3.814 -7.208,8.514 -7.208,14.101c-0,5.676 2.403,10.377 7.208,14.102c4.45,3.547 9.566,5.32 15.351,5.32Z" style="fill:rgb(210,0,0);fill-rule:nonzero;"/>
    <path d="M86.978,280.061c-1.347,-5.128 -3.27,-9.94 -5.768,-14.438c-2.499,-4.497 -7.333,-11.482 -14.503,-20.955c-5.258,-6.953 -8.495,-11.363 -9.712,-13.232c-1.998,-3.041 -3.443,-5.833 -4.334,-8.375c-0.891,-2.542 -1.336,-5.117 -1.336,-7.724c-0,-4.823 1.608,-8.865 4.823,-12.124c3.216,-3.259 7.192,-4.888 11.928,-4.888c4.78,-0 8.93,1.695 12.45,5.084c2.65,2.52 4.801,6.279 6.452,11.276c1.434,-4.91 3.455,-8.647 6.062,-11.211c3.607,-3.476 7.778,-5.214 12.515,-5.214c4.693,-0 8.669,1.618 11.928,4.856c3.259,3.237 4.888,7.093 4.888,11.569c0,3.911 -0.956,7.985 -2.868,12.221c-1.912,4.237 -5.605,9.788 -11.08,16.654c-7.127,8.995 -12.319,16.382 -15.578,22.161c-2.564,4.563 -4.52,9.343 -5.867,14.34Z" style="fill:rgb(210,0,0);fill-rule:nonzero;"/>
    <path d="M86.848,164.873c-9.878,-0 -18.421,-3.204 -25.63,-9.612c-7.475,-6.585 -11.213,-14.728 -11.213,-24.428c0,-11.391 4.939,-20.513 14.817,-27.365c-7.119,-5.874 -10.679,-13.305 -10.679,-22.293c0,-8.632 3.337,-15.885 10.012,-21.759c6.407,-5.606 13.972,-8.41 22.693,-8.41c8.721,0 16.286,2.804 22.693,8.41c6.675,5.874 10.012,13.127 10.012,21.759c-0,8.899 -3.56,16.33 -10.679,22.293c9.878,6.763 14.817,15.885 14.817,27.365c-0,9.7 -3.671,17.798 -11.013,24.295c-7.342,6.496 -15.952,9.745 -25.83,9.745Zm0,-99.183c-4.717,0 -8.855,1.418 -12.414,4.253c-4.005,3.013 -6.007,6.78 -6.007,11.299c-0,4.519 2.002,8.285 6.007,11.298c3.559,2.836 7.697,4.253 12.414,4.253c4.717,0 8.855,-1.417 12.414,-4.253c4.005,-3.013 6.007,-6.779 6.007,-11.298c0,-4.519 -2.002,-8.286 -6.007,-11.299c-3.559,-2.835 -7.697,-4.253 -12.414,-4.253Zm0,45.787c-5.785,-0 -10.902,1.774 -15.351,5.321c-4.806,3.725 -7.209,8.426 -7.209,14.102c0,5.587 2.403,10.287 7.209,14.102c4.449,3.458 9.566,5.187 15.351,5.187c5.785,-0 10.902,-1.729 15.351,-5.187c4.806,-3.815 7.209,-8.515 7.209,-14.102c-0,-5.676 -2.403,-10.377 -7.209,-14.102c-4.449,-3.547 -9.566,-5.321 -15.351,-5.321Z" style="fill:rgb(210,0,0);fill-rule:nonzero;"/>
</svg>
