<?xml version="1.0" encoding="UTF-8" standalone="no"?>
<!DOCTYPE svg PUBLIC "-//W3C//DTD SVG 1.1//EN" "http://www.w3.org/Graphics/SVG/1.1/DTD/svg11.dtd">
<svg width="100%" height="100%" viewBox="0 0 500 700" version="1.1" xmlns="http://www.w3.org/2000/svg" xmlns:xlink="http://www.w3.org/1999/xlink" xml:space="preserve" xmlns:serif="http://www.serif.com/" style="fill-rule:evenodd;clip-rule:evenodd;stroke-linejoin:round;stroke-miterlimit:2;">
    <rect id="HeartsTen" x="0" y="0" width="500" height="700" style="fill:none;"/>
    <path d="M413.528,420.013c1.346,5.124 3.267,9.934 5.765,14.429c2.497,4.495 7.328,11.476 14.494,20.943c5.254,6.948 8.49,11.356 9.706,13.224c1.997,3.04 3.441,5.83 4.332,8.37c0.89,2.541 1.335,5.114 1.335,7.72c0,4.82 -1.607,8.859 -4.82,12.116c-3.214,3.257 -7.188,4.886 -11.921,4.886c-4.777,-0 -8.925,-1.694 -12.442,-5.081c-2.65,-2.519 -4.799,-6.276 -6.449,-11.27c-1.434,4.908 -3.453,8.642 -6.059,11.205c-3.604,3.474 -7.773,5.211 -12.507,5.211c-4.69,-0 -8.664,-1.618 -11.921,-4.853c-3.257,-3.236 -4.886,-7.09 -4.886,-11.563c0,-3.908 0.956,-7.98 2.867,-12.214c1.911,-4.234 5.602,-9.782 11.074,-16.644c7.122,-8.989 12.312,-16.372 15.569,-22.148c2.562,-4.56 4.516,-9.337 5.863,-14.331Z" style="fill:rgb(210,0,0);fill-rule:nonzero;"/>
    <path d="M402.451,534.2c6.493,-0 12.03,2.356 16.61,7.07c4.58,4.714 6.871,10.362 6.871,16.943l-0,67.773c-0,6.493 -2.291,12.118 -6.871,16.877c-4.58,4.758 -10.117,7.137 -16.61,7.137c-6.581,-0 -12.162,-2.379 -16.743,-7.137c-4.58,-4.759 -6.87,-10.384 -6.87,-16.877l-0,-67.773c-0,-6.581 2.29,-12.229 6.87,-16.943c4.581,-4.714 10.162,-7.07 16.743,-7.07Zm0,101.125c2.528,-0 4.694,-0.933 6.499,-2.798c1.804,-1.865 2.707,-4.04 2.707,-6.526l-0,-67.669c-0,-2.575 -0.903,-4.795 -2.707,-6.66c-1.805,-1.865 -3.971,-2.797 -6.499,-2.797c-2.616,-0 -4.827,0.932 -6.632,2.797c-1.804,1.865 -2.706,4.085 -2.706,6.66l-0,67.669c-0,2.486 0.902,4.661 2.706,6.526c1.805,1.865 4.016,2.798 6.632,2.798Zm46.027,12.674l-14.275,-0l0,-111.398l14.275,-0l-0,111.398Z" style="fill:rgb(210,0,0);fill-rule:nonzero;"/>
    <path d="M86.472,279.983c-1.346,-5.125 -3.268,-9.934 -5.765,-14.429c-2.497,-4.495 -7.328,-11.476 -14.494,-20.943c-5.255,-6.948 -8.49,-11.356 -9.706,-13.223c-1.998,-3.04 -3.442,-5.83 -4.332,-8.371c-0.89,-2.54 -1.335,-5.113 -1.335,-7.719c-0,-4.82 1.607,-8.859 4.82,-12.116c3.214,-3.257 7.187,-4.886 11.921,-4.886c4.777,0 8.924,1.694 12.442,5.081c2.649,2.519 4.799,6.275 6.449,11.27c1.433,-4.908 3.452,-8.642 6.058,-11.205c3.604,-3.474 7.773,-5.211 12.507,-5.211c4.69,0 8.664,1.618 11.921,4.853c3.257,3.235 4.885,7.09 4.885,11.563c0,3.908 -0.955,7.979 -2.866,12.213c-1.911,4.235 -5.602,9.782 -11.074,16.644c-7.122,8.989 -12.312,16.372 -15.569,22.148c-2.562,4.56 -4.516,9.336 -5.862,14.331Z" style="fill:rgb(210,0,0);fill-rule:nonzero;"/>
    <path d="M97.548,165.798c-6.493,0 -12.029,-2.357 -16.61,-7.07c-4.58,-4.714 -6.87,-10.362 -6.87,-16.943l-0,-67.772c-0,-6.492 2.29,-12.117 6.87,-16.876c4.581,-4.758 10.117,-7.137 16.61,-7.137c6.581,-0 12.162,2.379 16.742,7.137c4.581,4.759 6.871,10.384 6.871,16.876l-0,67.772c-0,6.581 -2.29,12.229 -6.871,16.943c-4.58,4.713 -10.161,7.07 -16.742,7.07Zm-0,-101.123c-2.528,-0 -4.694,0.932 -6.499,2.797c-1.804,1.865 -2.706,4.041 -2.706,6.527l-0,67.667c-0,2.575 0.902,4.795 2.706,6.66c1.805,1.865 3.971,2.797 6.499,2.797c2.617,0 4.827,-0.932 6.632,-2.797c1.804,-1.865 2.706,-4.085 2.706,-6.66l0,-67.667c0,-2.486 -0.902,-4.662 -2.706,-6.527c-1.805,-1.865 -4.015,-2.797 -6.632,-2.797Zm-46.026,-12.674l14.275,0l-0,111.396l-14.275,-0l-0,-111.396Z" style="fill:rgb(210,0,0);fill-rule:nonzero;"/>
</svg>
