<?xml version="1.0" encoding="UTF-8" standalone="no"?>
<!DOCTYPE svg PUBLIC "-//W3C//DTD SVG 1.1//EN" "http://www.w3.org/Graphics/SVG/1.1/DTD/svg11.dtd">
<svg width="100%" height="100%" viewBox="0 0 500 700" version="1.1" xmlns="http://www.w3.org/2000/svg" xmlns:xlink="http://www.w3.org/1999/xlink" xml:space="preserve" xmlns:serif="http://www.serif.com/" style="fill-rule:evenodd;clip-rule:evenodd;stroke-linejoin:round;stroke-miterlimit:2;">
    <rect id="Hearts9" x="0" y="0" width="500" height="700" style="fill:none;"/>
    <path d="M413.023,419.945c1.347,5.127 3.269,9.939 5.768,14.437c2.498,4.497 7.332,11.482 14.502,20.955c5.258,6.952 8.495,11.362 9.712,13.231c1.999,3.042 3.443,5.833 4.334,8.375c0.891,2.542 1.336,5.117 1.336,7.724c0,4.823 -1.608,8.864 -4.823,12.123c-3.215,3.259 -7.191,4.889 -11.928,4.889c-4.779,-0 -8.929,-1.695 -12.449,-5.084c-2.65,-2.521 -4.801,-6.279 -6.452,-11.276c-1.434,4.91 -3.455,8.647 -6.062,11.211c-3.607,3.476 -7.778,5.214 -12.514,5.214c-4.693,-0 -8.669,-1.619 -11.928,-4.856c-3.259,-3.237 -4.888,-7.094 -4.888,-11.569c-0,-3.911 0.955,-7.985 2.867,-12.221c1.912,-4.237 5.606,-9.788 11.081,-16.653c7.126,-8.995 12.319,-16.382 15.577,-22.161c2.564,-4.563 4.519,-9.342 5.867,-14.339Z" style="fill:rgb(210,0,0);fill-rule:nonzero;"/>
    <path d="M392.196,576.644c6.229,-4.983 13.259,-7.475 21.09,-7.475c10.501,0 19.267,4.138 26.297,12.414c6.763,8.009 10.145,17.309 10.145,27.899c-0,10.679 -3.382,19.978 -10.145,27.898c-7.03,8.365 -15.796,12.548 -26.297,12.548c-12.992,0 -22.737,-6.719 -29.233,-20.156c-4.984,-10.412 -7.475,-22.915 -7.475,-37.51c-0,-15.306 2.447,-27.987 7.341,-38.043c6.408,-13.26 16.464,-19.89 30.168,-19.89c13.349,0 23.939,6.853 31.77,20.557l-12.548,7.342c-4.983,-8.81 -11.391,-13.215 -19.222,-13.215c-11.657,-0 -18.955,9.21 -21.891,27.631Zm21.157,58.601c6.427,-0 11.782,-2.752 16.066,-8.256c4.017,-5.058 6.026,-10.872 6.026,-17.44c0,-6.569 -2.009,-12.383 -6.026,-17.441c-4.284,-5.504 -9.639,-8.256 -16.066,-8.256c-5.445,0 -10.176,2.086 -14.193,6.258c-3.571,3.728 -6.026,8.388 -7.365,13.98c2.589,20.77 9.775,31.155 21.558,31.155Z" style="fill:rgb(210,0,0);fill-rule:nonzero;"/>
    <path d="M86.978,280.061c-1.347,-5.128 -3.27,-9.94 -5.768,-14.438c-2.499,-4.497 -7.333,-11.482 -14.503,-20.955c-5.258,-6.953 -8.495,-11.363 -9.712,-13.232c-1.998,-3.041 -3.443,-5.833 -4.334,-8.375c-0.891,-2.542 -1.336,-5.117 -1.336,-7.724c-0,-4.823 1.608,-8.865 4.823,-12.124c3.216,-3.259 7.192,-4.888 11.928,-4.888c4.78,-0 8.93,1.695 12.45,5.084c2.65,2.52 4.801,6.279 6.452,11.276c1.434,-4.91 3.455,-8.647 6.062,-11.211c3.607,-3.476 7.778,-5.214 12.515,-5.214c4.693,-0 8.669,1.618 11.928,4.856c3.259,3.237 4.888,7.093 4.888,11.569c0,3.911 -0.956,7.985 -2.868,12.221c-1.912,4.237 -5.605,9.788 -11.08,16.654c-7.127,8.995 -12.319,16.382 -15.578,22.161c-2.564,4.563 -4.52,9.343 -5.867,14.34Z" style="fill:rgb(210,0,0);fill-rule:nonzero;"/>
    <path d="M107.806,123.358c-6.23,4.983 -13.26,7.475 -21.091,7.475c-10.502,-0 -19.267,-4.138 -26.298,-12.415c-6.763,-8.009 -10.145,-17.309 -10.145,-27.899c-0,-10.679 3.382,-19.979 10.145,-27.899c7.031,-8.365 15.796,-12.548 26.298,-12.548c12.992,-0 22.737,6.719 29.234,20.157c4.983,10.412 7.475,22.915 7.475,37.51c0,15.307 -2.447,27.988 -7.342,38.045c-6.407,13.26 -16.464,19.89 -30.168,19.89c-13.349,-0 -23.939,-6.853 -31.771,-20.558l12.548,-7.342c4.984,8.811 11.391,13.216 19.223,13.216c11.658,-0 18.955,-9.211 21.892,-27.632Zm-21.158,-58.602c-6.427,-0 -11.783,2.752 -16.067,8.255c-4.017,5.059 -6.026,10.873 -6.026,17.441c0,6.569 2.009,12.383 6.026,17.442c4.284,5.503 9.64,8.255 16.067,8.255c5.445,0 10.176,-2.086 14.193,-6.257c3.571,-3.728 6.026,-8.388 7.365,-13.981c-2.589,-20.77 -9.775,-31.155 -21.558,-31.155Z" style="fill:rgb(210,0,0);fill-rule:nonzero;"/>
</svg>
