<?xml version="1.0" encoding="UTF-8" standalone="no"?>
<!DOCTYPE svg PUBLIC "-//W3C//DTD SVG 1.1//EN" "http://www.w3.org/Graphics/SVG/1.1/DTD/svg11.dtd">
<svg width="100%" height="100%" viewBox="0 0 500 700" version="1.1" xmlns="http://www.w3.org/2000/svg" xmlns:xlink="http://www.w3.org/1999/xlink" xml:space="preserve" xmlns:serif="http://www.serif.com/" style="fill-rule:evenodd;clip-rule:evenodd;stroke-linejoin:round;stroke-miterlimit:2;">
    <rect id="HeartsFour" x="0" y="0" width="500" height="700" style="fill:none;"/>
    <path d="M413.023,419.945c1.347,5.127 3.269,9.939 5.768,14.437c2.498,4.497 7.332,11.482 14.502,20.955c5.258,6.952 8.495,11.362 9.712,13.231c1.999,3.042 3.443,5.833 4.334,8.375c0.891,2.542 1.336,5.117 1.336,7.724c0,4.823 -1.608,8.864 -4.823,12.123c-3.215,3.259 -7.191,4.889 -11.928,4.889c-4.779,-0 -8.929,-1.695 -12.449,-5.084c-2.65,-2.521 -4.801,-6.279 -6.452,-11.276c-1.434,4.91 -3.455,8.647 -6.062,11.211c-3.607,3.476 -7.778,5.214 -12.514,5.214c-4.693,-0 -8.669,-1.619 -11.928,-4.856c-3.259,-3.237 -4.888,-7.094 -4.888,-11.569c-0,-3.911 0.955,-7.985 2.867,-12.221c1.912,-4.237 5.606,-9.788 11.081,-16.653c7.126,-8.995 12.319,-16.382 15.577,-22.161c2.564,-4.563 4.519,-9.342 5.867,-14.339Z" style="fill:rgb(210,0,0);fill-rule:nonzero;"/>
    <path d="M414.087,551.148l-9.077,0l0,11.747l44.318,0l-0,11.613l-46.318,73.418l-12.283,-0l0,-70.347l-13.749,-0l0,-14.684l13.749,0l0,-11.747l-6.808,0l0,-14.683l30.168,0l0,14.683Zm16.1,26.431l-25.177,-0l0,39.906l25.177,-39.906Z" style="fill:rgb(210,0,0);fill-rule:nonzero;"/>
    <path d="M86.978,280.061c-1.347,-5.128 -3.27,-9.94 -5.768,-14.438c-2.499,-4.497 -7.333,-11.482 -14.503,-20.955c-5.258,-6.953 -8.495,-11.363 -9.712,-13.232c-1.998,-3.041 -3.443,-5.833 -4.334,-8.375c-0.891,-2.542 -1.336,-5.117 -1.336,-7.724c-0,-4.823 1.608,-8.865 4.823,-12.124c3.216,-3.259 7.192,-4.888 11.928,-4.888c4.78,-0 8.93,1.695 12.45,5.084c2.65,2.52 4.801,6.279 6.452,11.276c1.434,-4.91 3.455,-8.647 6.062,-11.211c3.607,-3.476 7.778,-5.214 12.515,-5.214c4.693,-0 8.669,1.618 11.928,4.856c3.259,3.237 4.888,7.093 4.888,11.569c0,3.911 -0.956,7.985 -2.868,12.221c-1.912,4.237 -5.605,9.788 -11.08,16.654c-7.127,8.995 -12.319,16.382 -15.578,22.161c-2.564,4.563 -4.52,9.343 -5.867,14.34Z" style="fill:rgb(210,0,0);fill-rule:nonzero;"/>
    <path d="M85.914,148.854l9.077,-0l-0,-11.747l-44.319,-0l0,-11.614l46.319,-73.419l12.283,0l0,70.349l13.75,0l-0,14.684l-13.75,-0l0,11.747l6.808,-0l0,14.684l-30.168,-0l-0,-14.684Zm-16.1,-26.431l25.177,0l-0,-39.907l-25.177,39.907Z" style="fill:rgb(210,0,0);fill-rule:nonzero;"/>
</svg>
