<?xml version="1.0" encoding="UTF-8" standalone="no"?>
<!DOCTYPE svg PUBLIC "-//W3C//DTD SVG 1.1//EN" "http://www.w3.org/Graphics/SVG/1.1/DTD/svg11.dtd">
<svg width="100%" height="100%" viewBox="0 0 500 700" version="1.1" xmlns="http://www.w3.org/2000/svg" xmlns:xlink="http://www.w3.org/1999/xlink" xml:space="preserve" xmlns:serif="http://www.serif.com/" style="fill-rule:evenodd;clip-rule:evenodd;stroke-linejoin:round;stroke-miterlimit:2;">
    <rect id="Hearts3" x="0" y="0" width="500" height="700" style="fill:none;"/>
    <path d="M413.023,419.945c1.347,5.127 3.269,9.939 5.768,14.437c2.498,4.497 7.332,11.482 14.502,20.955c5.258,6.952 8.495,11.362 9.712,13.231c1.999,3.042 3.443,5.833 4.334,8.375c0.891,2.542 1.336,5.117 1.336,7.724c0,4.823 -1.608,8.864 -4.823,12.123c-3.215,3.259 -7.191,4.889 -11.928,4.889c-4.779,-0 -8.929,-1.695 -12.449,-5.084c-2.65,-2.521 -4.801,-6.279 -6.452,-11.276c-1.434,4.91 -3.455,8.647 -6.062,11.211c-3.607,3.476 -7.778,5.214 -12.514,5.214c-4.693,-0 -8.669,-1.619 -11.928,-4.856c-3.259,-3.237 -4.888,-7.094 -4.888,-11.569c-0,-3.911 0.955,-7.985 2.867,-12.221c1.912,-4.237 5.606,-9.788 11.081,-16.653c7.126,-8.995 12.319,-16.382 15.577,-22.161c2.564,-4.563 4.519,-9.342 5.867,-14.339Z" style="fill:rgb(210,0,0);fill-rule:nonzero;"/>
    <path d="M414.621,534.73c8.543,-0 16.196,2.936 22.96,8.81c6.14,5.339 10.679,12.28 13.615,20.824l-13.644,4.805c-1.873,-5.569 -4.683,-10.121 -8.429,-13.657c-4.281,-4.066 -9.141,-6.099 -14.581,-6.099c-6.779,0 -12.62,2.663 -17.525,7.987c-4.905,5.325 -7.358,11.36 -7.358,18.105c0,6.655 2.098,12.068 6.292,16.24c4.194,4.171 9.683,6.257 16.466,6.257c3.123,-0 5.577,-0.4 7.362,-1.201c1.786,-0.801 3.928,-2.359 6.426,-4.672l10.308,10.145l-33.238,31.235l32.037,0l-0,-14.283l14.283,0l-0,28.967l-73.017,-0l-0,-9.194l28.47,-26.939c-8.999,-1.692 -16.194,-5.9 -21.585,-12.622c-5.391,-6.722 -8.087,-14.713 -8.087,-23.972c0,-10.775 3.871,-20.258 11.614,-28.449c7.742,-8.192 16.952,-12.287 27.631,-12.287Z" style="fill:rgb(210,0,0);fill-rule:nonzero;"/>
    <path d="M86.978,280.061c-1.347,-5.128 -3.27,-9.94 -5.768,-14.438c-2.499,-4.497 -7.333,-11.482 -14.503,-20.955c-5.258,-6.953 -8.495,-11.363 -9.712,-13.232c-1.998,-3.041 -3.443,-5.833 -4.334,-8.375c-0.891,-2.542 -1.336,-5.117 -1.336,-7.724c-0,-4.823 1.608,-8.865 4.823,-12.124c3.216,-3.259 7.192,-4.888 11.928,-4.888c4.78,-0 8.93,1.695 12.45,5.084c2.65,2.52 4.801,6.279 6.452,11.276c1.434,-4.91 3.455,-8.647 6.062,-11.211c3.607,-3.476 7.778,-5.214 12.515,-5.214c4.693,-0 8.669,1.618 11.928,4.856c3.259,3.237 4.888,7.093 4.888,11.569c0,3.911 -0.956,7.985 -2.868,12.221c-1.912,4.237 -5.605,9.788 -11.08,16.654c-7.127,8.995 -12.319,16.382 -15.578,22.161c-2.564,4.563 -4.52,9.343 -5.867,14.34Z" style="fill:rgb(210,0,0);fill-rule:nonzero;"/>
    <path d="M85.38,165.273c-8.544,0 -16.197,-2.937 -22.96,-8.81c-6.141,-5.34 -10.68,-12.281 -13.616,-20.825l13.645,-4.805c1.873,5.569 4.682,10.121 8.428,13.657c4.282,4.066 9.142,6.099 14.582,6.099c6.779,0 12.621,-2.662 17.526,-7.987c4.905,-5.325 7.357,-11.36 7.357,-18.106c0,-6.655 -2.097,-12.068 -6.292,-16.239c-4.194,-4.172 -9.683,-6.258 -16.466,-6.258c-3.123,0 -5.577,0.401 -7.362,1.202c-1.786,0.801 -3.928,2.358 -6.427,4.672l-10.308,-10.145l33.239,-31.237l-32.037,0l-0,14.283l-14.284,0l0,-28.967l73.019,0l0,9.194l-28.471,26.94c9,1.692 16.195,5.9 21.586,12.622c5.391,6.723 8.086,14.714 8.086,23.973c0,10.775 -3.871,20.258 -11.613,28.45c-7.743,8.191 -16.953,12.287 -27.632,12.287Z" style="fill:rgb(210,0,0);fill-rule:nonzero;"/>
</svg>
