<?xml version="1.0" encoding="UTF-8" standalone="no"?>
<!DOCTYPE svg PUBLIC "-//W3C//DTD SVG 1.1//EN" "http://www.w3.org/Graphics/SVG/1.1/DTD/svg11.dtd">
<svg width="100%" height="100%" viewBox="0 0 500 700" version="1.1" xmlns="http://www.w3.org/2000/svg" xmlns:xlink="http://www.w3.org/1999/xlink" xml:space="preserve" xmlns:serif="http://www.serif.com/" style="fill-rule:evenodd;clip-rule:evenodd;stroke-linejoin:round;stroke-miterlimit:2;">
    <rect id="HeartsFive" x="0" y="0" width="500" height="700" style="fill:none;"/>
    <path d="M413.023,419.945c1.347,5.127 3.269,9.939 5.768,14.437c2.498,4.497 7.332,11.482 14.502,20.955c5.258,6.952 8.495,11.362 9.712,13.231c1.999,3.042 3.443,5.833 4.334,8.375c0.891,2.542 1.336,5.117 1.336,7.724c0,4.823 -1.608,8.864 -4.823,12.123c-3.215,3.259 -7.191,4.889 -11.928,4.889c-4.779,-0 -8.929,-1.695 -12.449,-5.084c-2.65,-2.521 -4.801,-6.279 -6.452,-11.276c-1.434,4.91 -3.455,8.647 -6.062,11.211c-3.607,3.476 -7.778,5.214 -12.514,5.214c-4.693,-0 -8.669,-1.619 -11.928,-4.856c-3.259,-3.237 -4.888,-7.094 -4.888,-11.569c-0,-3.911 0.955,-7.985 2.867,-12.221c1.912,-4.237 5.606,-9.788 11.081,-16.653c7.126,-8.995 12.319,-16.382 15.577,-22.161c2.564,-4.563 4.519,-9.342 5.867,-14.339Z" style="fill:rgb(210,0,0);fill-rule:nonzero;"/>
    <path d="M414.755,534.196c8.009,-0 15.351,2.758 22.025,8.276c5.873,5.072 10.456,11.613 13.749,19.622l-13.378,5.607c-2.141,-5.213 -4.995,-9.499 -8.562,-12.857c-4.192,-3.976 -8.83,-5.965 -13.914,-5.965c-7.135,0 -13.067,3.322 -17.793,9.966c-4.281,5.936 -6.422,12.536 -6.422,19.799c0,7.353 2.142,13.909 6.424,19.669c4.639,6.289 10.571,9.433 17.798,9.433c6.155,0 12.266,-3.292 18.333,-9.877l10.439,6.14l0,44.184l-54.195,-0l-0,-14.684l39.912,0l0,-14.283c-4.638,2.136 -9.411,3.204 -14.318,3.204c-11.242,-0 -20.61,-4.583 -28.103,-13.749c-7.049,-8.543 -10.573,-18.555 -10.573,-30.034c0,-11.48 3.471,-21.581 10.412,-30.302c7.564,-9.433 16.953,-14.149 28.166,-14.149Z" style="fill:rgb(210,0,0);fill-rule:nonzero;"/>
    <path d="M86.978,280.061c-1.347,-5.128 -3.27,-9.94 -5.768,-14.438c-2.499,-4.497 -7.333,-11.482 -14.503,-20.955c-5.258,-6.953 -8.495,-11.363 -9.712,-13.232c-1.998,-3.041 -3.443,-5.833 -4.334,-8.375c-0.891,-2.542 -1.336,-5.117 -1.336,-7.724c-0,-4.823 1.608,-8.865 4.823,-12.124c3.216,-3.259 7.192,-4.888 11.928,-4.888c4.78,-0 8.93,1.695 12.45,5.084c2.65,2.52 4.801,6.279 6.452,11.276c1.434,-4.91 3.455,-8.647 6.062,-11.211c3.607,-3.476 7.778,-5.214 12.515,-5.214c4.693,-0 8.669,1.618 11.928,4.856c3.259,3.237 4.888,7.093 4.888,11.569c0,3.911 -0.956,7.985 -2.868,12.221c-1.912,4.237 -5.605,9.788 -11.08,16.654c-7.127,8.995 -12.319,16.382 -15.578,22.161c-2.564,4.563 -4.52,9.343 -5.867,14.34Z" style="fill:rgb(210,0,0);fill-rule:nonzero;"/>
    <path d="M85.246,165.807c-8.009,0 -15.351,-2.759 -22.026,-8.276c-5.873,-5.073 -10.456,-11.614 -13.749,-19.623l13.378,-5.607c2.142,5.213 4.996,9.499 8.562,12.857c4.193,3.977 8.831,5.965 13.914,5.965c7.137,0 13.068,-3.322 17.794,-9.966c4.281,-5.936 6.422,-12.536 6.422,-19.8c0,-7.353 -2.141,-13.909 -6.424,-19.669c-4.639,-6.289 -10.571,-9.433 -17.798,-9.433c-6.156,-0 -12.267,3.292 -18.334,9.878l-10.439,-6.141l-0,-44.185l54.197,0l-0,14.684l-39.914,0l0,14.283c4.639,-2.135 9.412,-3.203 14.319,-3.203c11.242,-0 20.61,4.583 28.104,13.749c7.048,8.543 10.572,18.555 10.572,30.035c0,11.48 -3.47,21.581 -10.412,30.302c-7.564,9.433 -16.953,14.15 -28.166,14.15Z" style="fill:rgb(210,0,0);fill-rule:nonzero;"/>
</svg>
