<?xml version="1.0" encoding="UTF-8" standalone="no"?>
<!DOCTYPE svg PUBLIC "-//W3C//DTD SVG 1.1//EN" "http://www.w3.org/Graphics/SVG/1.1/DTD/svg11.dtd">
<svg width="100%" height="100%" viewBox="0 0 500 700" version="1.1" xmlns="http://www.w3.org/2000/svg" xmlns:xlink="http://www.w3.org/1999/xlink" xml:space="preserve" xmlns:serif="http://www.serif.com/" style="fill-rule:evenodd;clip-rule:evenodd;stroke-linejoin:round;stroke-miterlimit:2;">
    <rect id="Hearts7" x="0" y="0" width="500" height="700" style="fill:none;"/>
    <path d="M413.023,419.945c1.347,5.127 3.269,9.939 5.768,14.437c2.498,4.497 7.332,11.482 14.502,20.955c5.258,6.952 8.495,11.362 9.712,13.231c1.999,3.042 3.443,5.833 4.334,8.375c0.891,2.542 1.336,5.117 1.336,7.724c0,4.823 -1.608,8.864 -4.823,12.123c-3.215,3.259 -7.191,4.889 -11.928,4.889c-4.779,-0 -8.929,-1.695 -12.449,-5.084c-2.65,-2.521 -4.801,-6.279 -6.452,-11.276c-1.434,4.91 -3.455,8.647 -6.062,11.211c-3.607,3.476 -7.778,5.214 -12.514,5.214c-4.693,-0 -8.669,-1.619 -11.928,-4.856c-3.259,-3.237 -4.888,-7.094 -4.888,-11.569c-0,-3.911 0.955,-7.985 2.867,-12.221c1.912,-4.237 5.606,-9.788 11.081,-16.653c7.126,-8.995 12.319,-16.382 15.577,-22.161c2.564,-4.563 4.519,-9.342 5.867,-14.339Z" style="fill:rgb(210,0,0);fill-rule:nonzero;"/>
    <path d="M449.194,618.025l0,29.767l-65.275,0l-7.341,-12.814c18.243,-26.164 30.924,-58.912 38.043,-98.246l15.618,-0c-6.318,36.041 -17.398,67.811 -33.238,95.309l36.842,-0l0,-14.016l15.351,-0Z" style="fill:rgb(210,0,0);fill-rule:nonzero;"/>
    <path d="M86.978,280.061c-1.347,-5.128 -3.27,-9.94 -5.768,-14.438c-2.499,-4.497 -7.333,-11.482 -14.503,-20.955c-5.258,-6.953 -8.495,-11.363 -9.712,-13.232c-1.998,-3.041 -3.443,-5.833 -4.334,-8.375c-0.891,-2.542 -1.336,-5.117 -1.336,-7.724c-0,-4.823 1.608,-8.865 4.823,-12.124c3.216,-3.259 7.192,-4.888 11.928,-4.888c4.78,-0 8.93,1.695 12.45,5.084c2.65,2.52 4.801,6.279 6.452,11.276c1.434,-4.91 3.455,-8.647 6.062,-11.211c3.607,-3.476 7.778,-5.214 12.515,-5.214c4.693,-0 8.669,1.618 11.928,4.856c3.259,3.237 4.888,7.093 4.888,11.569c0,3.911 -0.956,7.985 -2.868,12.221c-1.912,4.237 -5.605,9.788 -11.08,16.654c-7.127,8.995 -12.319,16.382 -15.578,22.161c-2.564,4.563 -4.52,9.343 -5.867,14.34Z" style="fill:rgb(210,0,0);fill-rule:nonzero;"/>
    <path d="M50.806,81.976l-0,-29.768l65.276,-0l7.342,12.815c-18.243,26.164 -30.925,58.913 -38.044,98.248l-15.619,-0c6.319,-36.042 17.398,-67.813 33.239,-95.311l-36.843,-0l0,14.016l-15.351,-0Z" style="fill:rgb(210,0,0);fill-rule:nonzero;"/>
</svg>
