<?xml version="1.0" encoding="UTF-8" standalone="no"?>
<!DOCTYPE svg PUBLIC "-//W3C//DTD SVG 1.1//EN" "http://www.w3.org/Graphics/SVG/1.1/DTD/svg11.dtd">
<svg width="100%" height="100%" viewBox="0 0 500 700" version="1.1" xmlns="http://www.w3.org/2000/svg" xmlns:xlink="http://www.w3.org/1999/xlink" xml:space="preserve" xmlns:serif="http://www.serif.com/" style="fill-rule:evenodd;clip-rule:evenodd;stroke-linejoin:round;stroke-miterlimit:2;">
    <rect id="Hearts6" x="0" y="0" width="500" height="700" style="fill:none;"/>
    <path d="M413.023,419.945c1.347,5.127 3.269,9.939 5.768,14.437c2.498,4.497 7.332,11.482 14.502,20.955c5.258,6.952 8.495,11.362 9.712,13.231c1.999,3.042 3.443,5.833 4.334,8.375c0.891,2.542 1.336,5.117 1.336,7.724c0,4.823 -1.608,8.864 -4.823,12.123c-3.215,3.259 -7.191,4.889 -11.928,4.889c-4.779,-0 -8.929,-1.695 -12.449,-5.084c-2.65,-2.521 -4.801,-6.279 -6.452,-11.276c-1.434,4.91 -3.455,8.647 -6.062,11.211c-3.607,3.476 -7.778,5.214 -12.514,5.214c-4.693,-0 -8.669,-1.619 -11.928,-4.856c-3.259,-3.237 -4.888,-7.094 -4.888,-11.569c-0,-3.911 0.955,-7.985 2.867,-12.221c1.912,-4.237 5.606,-9.788 11.081,-16.653c7.126,-8.995 12.319,-16.382 15.577,-22.161c2.564,-4.563 4.519,-9.342 5.867,-14.339Z" style="fill:rgb(210,0,0);fill-rule:nonzero;"/>
    <path d="M448.927,583.185l0.134,0c0.178,-0.356 0.267,2.803 0.267,9.478c-0,15.662 -2.136,28.254 -6.408,37.776c-6.051,13.082 -15.974,19.622 -29.767,19.622c-6.763,0 -13.037,-1.824 -18.822,-5.472c-5.517,-3.56 -10.011,-8.366 -13.482,-14.417l12.414,-7.475c4.806,8.454 11.436,12.681 19.89,12.681c11.035,0 17.887,-8.232 20.557,-24.695c-6.141,5.429 -12.948,8.143 -20.424,8.143c-11.034,-0 -20.023,-4.583 -26.964,-13.749c-6.229,-8.276 -9.344,-18.154 -9.344,-29.634c0,-10.679 3.337,-20.112 10.012,-28.299c7.119,-8.632 15.884,-12.948 26.296,-12.948c5.162,-0 10.546,1.691 16.152,5.072c5.963,3.56 10.724,10.101 14.283,19.623c2.759,7.386 4.494,15.484 5.206,24.294Zm-35.641,-34.306c-6.407,0 -11.746,2.93 -16.018,8.789c-4.005,5.327 -6.007,11.275 -6.007,17.844c0,7.368 1.824,13.76 5.473,19.176c4.094,6.303 9.611,9.454 16.552,9.454c5.073,0 9.656,-2.441 13.749,-7.325c3.382,-4.082 5.874,-8.876 7.476,-14.381c-0.801,-8.167 -2.581,-15.18 -5.34,-21.038c-3.915,-8.346 -9.21,-12.519 -15.885,-12.519Z" style="fill:rgb(210,0,0);fill-rule:nonzero;"/>
    <path d="M86.978,280.061c-1.347,-5.128 -3.27,-9.94 -5.768,-14.438c-2.499,-4.497 -7.333,-11.482 -14.503,-20.955c-5.258,-6.953 -8.495,-11.363 -9.712,-13.232c-1.998,-3.041 -3.443,-5.833 -4.334,-8.375c-0.891,-2.542 -1.336,-5.117 -1.336,-7.724c-0,-4.823 1.608,-8.865 4.823,-12.124c3.216,-3.259 7.192,-4.888 11.928,-4.888c4.78,-0 8.93,1.695 12.45,5.084c2.65,2.52 4.801,6.279 6.452,11.276c1.434,-4.91 3.455,-8.647 6.062,-11.211c3.607,-3.476 7.778,-5.214 12.515,-5.214c4.693,-0 8.669,1.618 11.928,4.856c3.259,3.237 4.888,7.093 4.888,11.569c0,3.911 -0.956,7.985 -2.868,12.221c-1.912,4.237 -5.605,9.788 -11.08,16.654c-7.127,8.995 -12.319,16.382 -15.578,22.161c-2.564,4.563 -4.52,9.343 -5.867,14.34Z" style="fill:rgb(210,0,0);fill-rule:nonzero;"/>
    <path d="M51.073,116.817l-0.134,-0c-0.178,0.356 -0.267,-2.804 -0.267,-9.478c0,-15.663 2.136,-28.255 6.408,-37.778c6.051,-13.082 15.974,-19.622 29.768,-19.622c6.763,-0 13.037,1.824 18.822,5.473c5.518,3.559 10.012,8.365 13.482,14.416l-12.414,7.476c-4.806,-8.455 -11.436,-12.682 -19.89,-12.682c-11.035,0 -17.888,8.232 -20.557,24.696c6.14,-5.429 12.948,-8.143 20.424,-8.143c11.035,-0 20.023,4.583 26.964,13.749c6.23,8.277 9.345,18.155 9.345,29.635c-0,10.679 -3.338,20.112 -10.012,28.3c-7.12,8.632 -15.885,12.948 -26.297,12.948c-5.162,0 -10.546,-1.691 -16.153,-5.073c-5.962,-3.559 -10.723,-10.1 -14.283,-19.622c-2.759,-7.387 -4.494,-15.485 -5.206,-24.295Zm35.642,34.306c6.407,0 11.747,-2.93 16.018,-8.789c4.005,-5.327 6.007,-11.275 6.007,-17.844c0,-7.368 -1.824,-13.76 -5.473,-19.176c-4.094,-6.304 -9.611,-9.455 -16.552,-9.455c-5.073,-0 -9.656,2.441 -13.75,7.325c-3.382,4.083 -5.873,8.876 -7.475,14.381c0.801,8.168 2.581,15.181 5.339,21.039c3.916,8.346 9.211,12.519 15.886,12.519Z" style="fill:rgb(210,0,0);fill-rule:nonzero;"/>
</svg>
