<?xml version="1.0" encoding="UTF-8" standalone="no"?>
<!DOCTYPE svg PUBLIC "-//W3C//DTD SVG 1.1//EN" "http://www.w3.org/Graphics/SVG/1.1/DTD/svg11.dtd">
<svg width="100%" height="100%" viewBox="0 0 500 700" version="1.1" xmlns="http://www.w3.org/2000/svg" xmlns:xlink="http://www.w3.org/1999/xlink" xml:space="preserve" xmlns:serif="http://www.serif.com/" style="fill-rule:evenodd;clip-rule:evenodd;stroke-linejoin:round;stroke-miterlimit:2;">
    <rect id="HeartsTwo" x="0" y="0" width="500" height="700" style="fill:none;"/>
    <path d="M413.023,419.945c1.347,5.127 3.269,9.939 5.768,14.437c2.498,4.497 7.332,11.482 14.502,20.955c5.258,6.952 8.495,11.362 9.712,13.231c1.999,3.042 3.443,5.833 4.334,8.375c0.891,2.542 1.336,5.117 1.336,7.724c0,4.823 -1.608,8.864 -4.823,12.123c-3.215,3.259 -7.191,4.889 -11.928,4.889c-4.779,-0 -8.929,-1.695 -12.449,-5.084c-2.65,-2.521 -4.801,-6.279 -6.452,-11.276c-1.434,4.91 -3.455,8.647 -6.062,11.211c-3.607,3.476 -7.778,5.214 -12.514,5.214c-4.693,-0 -8.669,-1.619 -11.928,-4.856c-3.259,-3.237 -4.888,-7.094 -4.888,-11.569c-0,-3.911 0.955,-7.985 2.867,-12.221c1.912,-4.237 5.606,-9.788 11.081,-16.653c7.126,-8.995 12.319,-16.382 15.577,-22.161c2.564,-4.563 4.519,-9.342 5.867,-14.339Z" style="fill:rgb(210,0,0);fill-rule:nonzero;"/>
    <path d="M391.662,565.698l-14.283,0l-0,-28.833l71.548,0l0,7.342c0,13.438 -4.94,25.496 -14.821,36.175c-3.863,4.093 -13.071,11.435 -27.623,22.025c-9.881,7.208 -14.821,13.393 -14.821,18.555c-0,4.805 2.74,8.543 8.219,11.212c4.312,2.136 9.208,3.204 14.686,3.204c13.385,0 20.077,-4.449 20.077,-13.349c0,-1.868 -0.489,-3.96 -1.468,-6.273l13.348,-5.607c1.602,4.183 2.403,8.143 2.403,11.88c0,9.255 -3.484,16.375 -10.451,21.358c-6.252,4.45 -14.201,6.674 -23.849,6.674c-9.647,0 -17.999,-2.402 -25.055,-7.208c-8.129,-5.428 -12.193,-12.725 -12.193,-21.891c-0,-8.544 4.291,-16.553 12.875,-24.028c8.405,-6.407 16.811,-12.815 25.216,-19.222c9.836,-8.187 15.783,-16.908 17.839,-26.163l-41.647,-0l-0,14.149Z" style="fill:rgb(210,0,0);fill-rule:nonzero;"/>
    <path d="M86.978,280.061c-1.347,-5.128 -3.27,-9.94 -5.768,-14.438c-2.499,-4.497 -7.333,-11.482 -14.503,-20.955c-5.258,-6.953 -8.495,-11.363 -9.712,-13.232c-1.998,-3.041 -3.443,-5.833 -4.334,-8.375c-0.891,-2.542 -1.336,-5.117 -1.336,-7.724c-0,-4.823 1.608,-8.865 4.823,-12.124c3.216,-3.259 7.192,-4.888 11.928,-4.888c4.78,-0 8.93,1.695 12.45,5.084c2.65,2.52 4.801,6.279 6.452,11.276c1.434,-4.91 3.455,-8.647 6.062,-11.211c3.607,-3.476 7.778,-5.214 12.515,-5.214c4.693,-0 8.669,1.618 11.928,4.856c3.259,3.237 4.888,7.093 4.888,11.569c0,3.911 -0.956,7.985 -2.868,12.221c-1.912,4.237 -5.605,9.788 -11.08,16.654c-7.127,8.995 -12.319,16.382 -15.578,22.161c-2.564,4.563 -4.52,9.343 -5.867,14.34Z" style="fill:rgb(210,0,0);fill-rule:nonzero;"/>
    <path d="M108.34,134.304l14.283,-0l0,28.833l-71.55,0l-0,-7.342c-0,-13.438 4.94,-25.496 14.821,-36.175c3.863,-4.094 13.071,-11.436 27.624,-22.026c9.881,-7.208 14.822,-13.393 14.822,-18.555c-0,-4.805 -2.74,-8.543 -8.22,-11.213c-4.312,-2.136 -9.208,-3.204 -14.686,-3.204c-13.385,0 -20.078,4.45 -20.078,13.349c0,1.869 0.49,3.96 1.469,6.274l-13.349,5.607c-1.602,-4.183 -2.403,-8.143 -2.403,-11.881c-0,-9.255 3.484,-16.374 10.452,-21.358c6.251,-4.45 14.201,-6.674 23.848,-6.674c9.648,-0 18,2.402 25.057,7.208c8.129,5.428 12.193,12.726 12.193,21.892c0,8.543 -4.292,16.553 -12.875,24.028c-8.406,6.408 -16.812,12.815 -25.217,19.223c-9.837,8.187 -15.783,16.908 -17.84,26.163l41.649,0l-0,-14.149Z" style="fill:rgb(210,0,0);fill-rule:nonzero;"/>
</svg>
