<?xml version="1.0" encoding="UTF-8" standalone="no"?>
<!DOCTYPE svg PUBLIC "-//W3C//DTD SVG 1.1//EN" "http://www.w3.org/Graphics/SVG/1.1/DTD/svg11.dtd">
<svg width="100%" height="100%" viewBox="0 0 500 700" version="1.1" xmlns="http://www.w3.org/2000/svg" xmlns:xlink="http://www.w3.org/1999/xlink" xml:space="preserve" xmlns:serif="http://www.serif.com/" style="fill-rule:evenodd;clip-rule:evenodd;stroke-linejoin:round;stroke-miterlimit:2;">
    <rect id="Joker" x="0" y="0" width="500" height="700" style="fill:none;"/>
    <g transform="matrix(-1.71132,-2.09577e-16,2.09577e-16,-1.71132,512.196,715.546)">
        <g transform="matrix(72,0,0,72,33.8096,99.1964)">
            <path d="M0.169,-0.285c0,0.041 0,0.058 0,0.051c0,0.04 0.008,0.072 0.025,0.096c0.02,0.029 0.05,0.043 0.09,0.043c0.034,0 0.061,-0.012 0.082,-0.037c0.019,-0.023 0.028,-0.051 0.028,-0.085l-0,-0.495l-0.091,0l-0,-0.119l0.293,0l-0,0.119l-0.087,0l-0,0.495c-0,0.067 -0.02,0.124 -0.061,0.169c-0.043,0.047 -0.097,0.071 -0.164,0.071c-0.067,-0 -0.123,-0.023 -0.166,-0.07c-0.043,-0.047 -0.065,-0.104 -0.064,-0.171l-0,-0.067l0.115,0Z" style="fill-rule:nonzero;"/>
        </g>
        <g transform="matrix(72,0,0,72,33.8096,171.196)">
            <path d="M0.05,-0.264l0,-0.297c0,-0.077 0.027,-0.144 0.08,-0.2c0.053,-0.056 0.118,-0.084 0.195,-0.084c0.077,-0 0.142,0.028 0.195,0.084c0.053,0.056 0.08,0.123 0.08,0.2l0,0.297c0,0.077 -0.027,0.144 -0.08,0.201c-0.053,0.057 -0.118,0.086 -0.195,0.086c-0.077,-0 -0.142,-0.029 -0.195,-0.086c-0.053,-0.057 -0.08,-0.124 -0.08,-0.201Zm0.116,-0.297l0,0.297c0,0.045 0.015,0.085 0.046,0.118c0.031,0.034 0.069,0.051 0.113,0.051c0.044,-0 0.081,-0.017 0.112,-0.051c0.032,-0.034 0.047,-0.073 0.047,-0.118l0,-0.297c0,-0.045 -0.015,-0.083 -0.046,-0.116c-0.032,-0.033 -0.069,-0.049 -0.113,-0.049c-0.044,0 -0.082,0.016 -0.113,0.049c-0.031,0.033 -0.046,0.071 -0.046,0.116Z" style="fill-rule:nonzero;"/>
        </g>
        <g transform="matrix(72,0,0,72,33.8096,243.196)">
            <path d="M0.05,-0.083l0.077,0l0,-0.656l-0.077,0l0,-0.092l0.233,0l-0,0.092l-0.065,0l-0,0.319l0.205,-0.319l-0.079,0l-0,-0.092l0.256,0l-0,0.092l-0.074,0l-0.166,0.259l0.17,0.397l0.07,-0l-0,0.092l-0.256,-0l-0,-0.092l0.083,-0l-0.129,-0.301l-0.08,0.125l-0,0.176l0.065,-0l-0,0.092l-0.233,-0l-0,-0.092Z" style="fill-rule:nonzero;"/>
        </g>
        <g transform="matrix(72,0,0,72,33.8096,315.196)">
            <path d="M0.492,-0.208l0.107,0l0,0.217l-0.548,0l0,-0.11l0.079,0l0,-0.62l-0.079,0l0,-0.11l0.548,0l0,0.217l-0.107,0l0,-0.107l-0.255,0l0,0.254l0.258,-0l0,0.11l-0.258,0l0,0.256l0.255,-0l0,-0.107Z" style="fill-rule:nonzero;"/>
        </g>
        <g transform="matrix(72,0,0,72,33.8096,387.196)">
            <path d="M0.237,-0.721l-0,0.254l0.13,-0c0.034,0.001 0.064,-0.012 0.088,-0.037c0.025,-0.025 0.037,-0.055 0.037,-0.09c0,-0.035 -0.012,-0.065 -0.037,-0.09c-0.024,-0.025 -0.054,-0.037 -0.088,-0.037l-0.13,0Zm-0.186,0.62l0.079,-0l0,-0.62l-0.079,0l-0,-0.11l0.316,0c0.065,0 0.119,0.023 0.164,0.07c0.045,0.047 0.068,0.103 0.068,0.168c0,0.056 -0.018,0.107 -0.054,0.152c-0.036,0.044 -0.082,0.071 -0.137,0.081l0.109,0.259l0.079,-0l0,0.107l-0.15,-0l-0.153,-0.363l-0.056,-0l0,0.256l0.076,-0l0,0.11l-0.262,-0l0,-0.11Z" style="fill-rule:nonzero;"/>
        </g>
    </g>
    <g transform="matrix(1.71634,0,0,1.71634,-12.3834,-15.7432)">
        <g transform="matrix(72,0,0,72,33.8096,99.1964)">
            <path d="M0.169,-0.285c0,0.041 0,0.058 0,0.051c0,0.04 0.008,0.072 0.025,0.096c0.02,0.029 0.05,0.043 0.09,0.043c0.034,0 0.061,-0.012 0.082,-0.037c0.019,-0.023 0.028,-0.051 0.028,-0.085l-0,-0.495l-0.091,0l-0,-0.119l0.293,0l-0,0.119l-0.087,0l-0,0.495c-0,0.067 -0.02,0.124 -0.061,0.169c-0.043,0.047 -0.097,0.071 -0.164,0.071c-0.067,-0 -0.123,-0.023 -0.166,-0.07c-0.043,-0.047 -0.065,-0.104 -0.064,-0.171l-0,-0.067l0.115,0Z" style="fill-rule:nonzero;"/>
        </g>
        <g transform="matrix(72,0,0,72,33.8096,171.196)">
            <path d="M0.05,-0.264l0,-0.297c0,-0.077 0.027,-0.144 0.08,-0.2c0.053,-0.056 0.118,-0.084 0.195,-0.084c0.077,-0 0.142,0.028 0.195,0.084c0.053,0.056 0.08,0.123 0.08,0.2l0,0.297c0,0.077 -0.027,0.144 -0.08,0.201c-0.053,0.057 -0.118,0.086 -0.195,0.086c-0.077,-0 -0.142,-0.029 -0.195,-0.086c-0.053,-0.057 -0.08,-0.124 -0.08,-0.201Zm0.116,-0.297l0,0.297c0,0.045 0.015,0.085 0.046,0.118c0.031,0.034 0.069,0.051 0.113,0.051c0.044,-0 0.081,-0.017 0.112,-0.051c0.032,-0.034 0.047,-0.073 0.047,-0.118l0,-0.297c0,-0.045 -0.015,-0.083 -0.046,-0.116c-0.032,-0.033 -0.069,-0.049 -0.113,-0.049c-0.044,0 -0.082,0.016 -0.113,0.049c-0.031,0.033 -0.046,0.071 -0.046,0.116Z" style="fill-rule:nonzero;"/>
        </g>
        <g transform="matrix(72,0,0,72,33.8096,243.196)">
            <path d="M0.05,-0.083l0.077,0l0,-0.656l-0.077,0l0,-0.092l0.233,0l-0,0.092l-0.065,0l-0,0.319l0.205,-0.319l-0.079,0l-0,-0.092l0.256,0l-0,0.092l-0.074,0l-0.166,0.259l0.17,0.397l0.07,-0l-0,0.092l-0.256,-0l-0,-0.092l0.083,-0l-0.129,-0.301l-0.08,0.125l-0,0.176l0.065,-0l-0,0.092l-0.233,-0l-0,-0.092Z" style="fill-rule:nonzero;"/>
        </g>
        <g transform="matrix(72,0,0,72,33.8096,315.196)">
            <path d="M0.492,-0.208l0.107,0l0,0.217l-0.548,0l0,-0.11l0.079,0l0,-0.62l-0.079,0l0,-0.11l0.548,0l0,0.217l-0.107,0l0,-0.107l-0.255,0l0,0.254l0.258,-0l0,0.11l-0.258,0l0,0.256l0.255,-0l0,-0.107Z" style="fill-rule:nonzero;"/>
        </g>
        <g transform="matrix(72,0,0,72,33.8096,387.196)">
            <path d="M0.237,-0.721l-0,0.254l0.13,-0c0.034,0.001 0.064,-0.012 0.088,-0.037c0.025,-0.025 0.037,-0.055 0.037,-0.09c0,-0.035 -0.012,-0.065 -0.037,-0.09c-0.024,-0.025 -0.054,-0.037 -0.088,-0.037l-0.13,0Zm-0.186,0.62l0.079,-0l0,-0.62l-0.079,0l-0,-0.11l0.316,0c0.065,0 0.119,0.023 0.164,0.07c0.045,0.047 0.068,0.103 0.068,0.168c0,0.056 -0.018,0.107 -0.054,0.152c-0.036,0.044 -0.082,0.071 -0.137,0.081l0.109,0.259l0.079,-0l0,0.107l-0.15,-0l-0.153,-0.363l-0.056,-0l0,0.256l0.076,-0l0,0.11l-0.262,-0l0,-0.11Z" style="fill-rule:nonzero;"/>
        </g>
    </g>
</svg>
