<?xml version="1.0" encoding="UTF-8" standalone="no"?>
<!DOCTYPE svg PUBLIC "-//W3C//DTD SVG 1.1//EN" "http://www.w3.org/Graphics/SVG/1.1/DTD/svg11.dtd">
<svg width="100%" height="100%" viewBox="0 0 500 700" version="1.1" xmlns="http://www.w3.org/2000/svg" xmlns:xlink="http://www.w3.org/1999/xlink" xml:space="preserve" xmlns:serif="http://www.serif.com/" style="fill-rule:evenodd;clip-rule:evenodd;stroke-linejoin:round;stroke-miterlimit:2;">
    <rect id="Spades5" x="0" y="0" width="500" height="700" style="fill:none;"/>
    <path d="M412.676,500.729c-1.137,-4.725 -2.887,-8.947 -5.25,-12.666c-2.362,-3.718 -6.573,-8.323 -12.632,-13.814c-6.06,-5.49 -9.899,-9.701 -11.518,-12.632c-1.618,-2.932 -2.428,-5.907 -2.428,-8.925c0,-4.2 1.4,-7.7 4.2,-10.5c2.8,-2.8 6.213,-4.2 10.238,-4.2c3.412,-0 6.508,1.06 9.286,3.182c2.778,2.122 5.239,5.218 7.382,9.286c-0.043,-6.431 -0.885,-11.539 -2.526,-15.323c-1.641,-3.785 -4.266,-6.76 -7.875,-8.925c-3.609,-2.166 -8.411,-3.445 -14.405,-3.839l-0.459,-2.428l52.04,-0l-0.525,2.428c-8.05,-0 -14.295,2.351 -18.735,7.054c-4.441,4.704 -6.574,11.715 -6.399,21.033c1.969,-4.156 4.408,-7.273 7.317,-9.351c2.91,-2.078 6.202,-3.117 9.877,-3.117c3.937,-0 7.317,1.421 10.139,4.265c2.822,2.844 4.233,6.256 4.233,10.238c-0,3.193 -0.722,6.081 -2.166,8.662c-1.969,3.588 -5.162,7.197 -9.581,10.828c-4.419,3.632 -7.678,6.628 -9.778,8.991c-3.194,3.631 -5.524,6.869 -6.989,9.712c-1.466,2.844 -2.614,6.191 -3.446,10.041Z" style="fill-rule:nonzero;"/>
    <path d="M414.515,533.403c8.064,0 15.456,2.778 22.176,8.333c5.914,5.107 10.528,11.693 13.843,19.757l-13.469,5.645c-2.156,-5.249 -5.03,-9.564 -8.621,-12.945c-4.221,-4.004 -8.89,-6.006 -14.009,-6.006c-7.184,0 -13.156,3.345 -17.915,10.034c-4.31,5.977 -6.466,12.622 -6.466,19.935c0,7.403 2.156,14.004 6.468,19.803c4.671,6.332 10.644,9.499 17.92,9.499c6.197,-0 12.35,-3.316 18.459,-9.946l10.51,6.182l0,44.487l-54.566,-0l-0,-14.784l40.185,-0l0,-14.381c-4.67,2.15 -9.476,3.226 -14.416,3.226c-11.319,-0 -20.751,-4.615 -28.296,-13.844c-7.096,-8.601 -10.644,-18.681 -10.644,-30.24c-0,-11.558 3.494,-21.728 10.483,-30.508c7.616,-9.498 17.069,-14.247 28.358,-14.247Z" style="fill-rule:nonzero;"/>
    <path d="M87.164,199.275c1.138,4.725 2.888,8.947 5.25,12.665c2.363,3.719 6.574,8.324 12.633,13.815c6.06,5.491 9.899,9.702 11.518,12.633c1.619,2.931 2.428,5.906 2.428,8.925c0,4.2 -1.4,7.7 -4.2,10.5c-2.8,2.801 -6.213,4.201 -10.238,4.201c-3.412,-0 -6.508,-1.061 -9.286,-3.183c-2.778,-2.122 -5.239,-5.218 -7.383,-9.286c0.044,6.431 0.886,11.539 2.527,15.323c1.64,3.785 4.265,6.76 7.875,8.926c3.609,2.165 8.411,3.445 14.405,3.839l0.459,2.428l-52.042,-0l0.525,-2.428c8.051,-0 14.296,-2.352 18.737,-7.055c4.44,-4.703 6.573,-11.715 6.398,-21.033c-1.968,4.156 -4.408,7.273 -7.317,9.351c-2.909,2.078 -6.202,3.118 -9.877,3.118c-3.937,-0 -7.317,-1.422 -10.139,-4.266c-2.822,-2.844 -4.233,-6.257 -4.233,-10.238c-0,-3.194 0.722,-6.081 2.166,-8.663c1.968,-3.587 5.162,-7.197 9.581,-10.828c4.419,-3.631 7.678,-6.628 9.778,-8.991c3.194,-3.631 5.524,-6.869 6.99,-9.713c1.465,-2.843 2.614,-6.19 3.445,-10.04Z" style="fill-rule:nonzero;"/>
    <path d="M85.486,166.6c-8.065,-0 -15.457,-2.778 -22.177,-8.333c-5.914,-5.108 -10.528,-11.693 -13.843,-19.758l13.469,-5.645c2.156,5.249 5.03,9.564 8.621,12.945c4.221,4.004 8.891,6.006 14.009,6.006c7.185,0 13.157,-3.344 17.916,-10.034c4.311,-5.977 6.466,-12.622 6.466,-19.936c0,-7.403 -2.156,-14.004 -6.468,-19.803c-4.671,-6.332 -10.644,-9.499 -17.92,-9.499c-6.198,0 -12.351,3.316 -18.459,9.946l-10.511,-6.182l-0,-44.488l54.568,0l-0,14.785l-40.187,-0l0,14.381c4.671,-2.151 9.476,-3.226 14.417,-3.226c11.319,0 20.751,4.615 28.296,13.844c7.097,8.601 10.645,18.682 10.645,30.24c0,11.559 -3.494,21.729 -10.483,30.51c-7.616,9.498 -17.069,14.247 -28.359,14.247Z" style="fill-rule:nonzero;"/>
</svg>
