<?xml version="1.0" encoding="UTF-8" standalone="no"?>
<!DOCTYPE svg PUBLIC "-//W3C//DTD SVG 1.1//EN" "http://www.w3.org/Graphics/SVG/1.1/DTD/svg11.dtd">
<svg width="100%" height="100%" viewBox="0 0 500 700" version="1.1" xmlns="http://www.w3.org/2000/svg" xmlns:xlink="http://www.w3.org/1999/xlink" xml:space="preserve" xmlns:serif="http://www.serif.com/" style="fill-rule:evenodd;clip-rule:evenodd;stroke-linejoin:round;stroke-miterlimit:2;">
    <rect id="Spades10" x="0" y="0" width="500" height="700" style="fill:none;"/>
    <path d="M413.508,500.751c-1.137,-4.722 -2.886,-8.941 -5.247,-12.658c-2.362,-3.717 -6.57,-8.319 -12.626,-13.806c-6.056,-5.488 -9.893,-9.696 -11.511,-12.626c-1.618,-2.93 -2.426,-5.903 -2.426,-8.92c-0,-4.198 1.399,-7.696 4.197,-10.494c2.799,-2.798 6.209,-4.198 10.232,-4.198c3.41,0 6.504,1.061 9.28,3.181c2.777,2.121 5.237,5.215 7.379,9.281c-0.044,-6.427 -0.885,-11.532 -2.525,-15.315c-1.64,-3.782 -4.263,-6.755 -7.871,-8.92c-3.607,-2.164 -8.406,-3.443 -14.396,-3.836l-0.459,-2.427l52.011,-0l-0.525,2.427c-8.045,-0 -14.287,2.35 -18.725,7.05c-4.438,4.701 -6.57,11.708 -6.395,21.021c1.968,-4.154 4.405,-7.269 7.313,-9.346c2.908,-2.077 6.198,-3.116 9.871,-3.116c3.935,0 7.313,1.422 10.133,4.264c2.821,2.842 4.231,6.252 4.231,10.231c-0,3.192 -0.722,6.078 -2.165,8.658c-1.967,3.585 -5.159,7.193 -9.575,10.822c-4.417,3.629 -7.674,6.624 -9.773,8.985c-3.192,3.63 -5.52,6.865 -6.985,9.707c-1.465,2.843 -2.613,6.188 -3.443,10.035Z" style="fill-rule:nonzero;"/>
    <path d="M402.45,533.407c6.537,-0 12.112,2.373 16.724,7.119c4.611,4.746 6.917,10.433 6.917,17.059l0,68.237c0,6.537 -2.306,12.201 -6.917,16.992c-4.612,4.791 -10.187,7.186 -16.724,7.186c-6.626,-0 -12.246,-2.395 -16.857,-7.186c-4.612,-4.791 -6.918,-10.455 -6.918,-16.992l-0,-68.237c-0,-6.626 2.306,-12.313 6.918,-17.059c4.611,-4.746 10.231,-7.119 16.857,-7.119Zm0,101.817c2.545,0 4.726,-0.938 6.543,-2.816c1.817,-1.878 2.726,-4.068 2.726,-6.572l-0,-68.131c-0,-2.593 -0.909,-4.828 -2.726,-6.706c-1.817,-1.878 -3.998,-2.816 -6.543,-2.816c-2.634,-0 -4.86,0.938 -6.677,2.816c-1.817,1.878 -2.725,4.113 -2.725,6.706l-0,68.131c-0,2.504 0.908,4.694 2.725,6.572c1.817,1.878 4.043,2.816 6.677,2.816Zm46.342,12.761l-14.373,0l0,-112.16l14.373,-0l-0,112.16Z" style="fill-rule:nonzero;"/>
    <path d="M86.331,199.246c1.137,4.722 2.886,8.941 5.247,12.658c2.361,3.716 6.57,8.318 12.626,13.806c6.056,5.487 9.892,9.696 11.51,12.625c1.618,2.93 2.427,5.903 2.427,8.92c-0,4.197 -1.399,7.695 -4.198,10.494c-2.798,2.798 -6.209,4.197 -10.231,4.197c-3.411,0 -6.504,-1.06 -9.281,-3.181c-2.776,-2.12 -5.236,-5.214 -7.378,-9.28c0.044,6.427 0.885,11.532 2.525,15.314c1.64,3.782 4.263,6.756 7.87,8.92c3.608,2.164 8.406,3.443 14.397,3.837l0.459,2.427l-52.01,-0l0.524,-2.427c8.046,-0 14.287,-2.35 18.725,-7.051c4.438,-4.7 6.57,-11.707 6.395,-21.02c-1.968,4.154 -4.405,7.269 -7.313,9.346c-2.908,2.077 -6.198,3.115 -9.871,3.115c-3.935,0 -7.313,-1.421 -10.133,-4.263c-2.82,-2.842 -4.23,-6.252 -4.23,-10.231c-0,-3.192 0.721,-6.078 2.164,-8.658c1.968,-3.585 5.16,-7.192 9.576,-10.821c4.416,-3.63 7.673,-6.625 9.772,-8.986c3.192,-3.629 5.52,-6.865 6.985,-9.707c1.465,-2.842 2.613,-6.187 3.443,-10.034Z" style="fill-rule:nonzero;"/>
    <path d="M97.549,166.591c-6.537,-0 -12.112,-2.373 -16.723,-7.119c-4.612,-4.746 -6.918,-10.433 -6.918,-17.059l0,-68.235c0,-6.537 2.306,-12.201 6.918,-16.992c4.611,-4.791 10.186,-7.186 16.723,-7.186c6.626,-0 12.245,2.395 16.857,7.186c4.612,4.791 6.918,10.455 6.918,16.992l-0,68.235c-0,6.626 -2.306,12.313 -6.918,17.059c-4.612,4.746 -10.231,7.119 -16.857,7.119Zm-0,-101.816c-2.545,0 -4.726,0.939 -6.543,2.817c-1.817,1.878 -2.725,4.068 -2.725,6.571l-0,68.13c-0,2.593 0.908,4.828 2.725,6.706c1.817,1.878 3.998,2.816 6.543,2.816c2.634,0 4.86,-0.938 6.677,-2.816c1.817,-1.878 2.725,-4.113 2.725,-6.706l0,-68.13c0,-2.503 -0.908,-4.693 -2.725,-6.571c-1.817,-1.878 -4.043,-2.817 -6.677,-2.817Zm-46.341,-12.76l14.372,-0l0,112.158l-14.372,-0l0,-112.158Z" style="fill-rule:nonzero;"/>
</svg>
