<?xml version="1.0" encoding="UTF-8" standalone="no"?>
<!DOCTYPE svg PUBLIC "-//W3C//DTD SVG 1.1//EN" "http://www.w3.org/Graphics/SVG/1.1/DTD/svg11.dtd">
<svg width="100%" height="100%" viewBox="0 0 500 700" version="1.1" xmlns="http://www.w3.org/2000/svg" xmlns:xlink="http://www.w3.org/1999/xlink" xml:space="preserve" xmlns:serif="http://www.serif.com/" style="fill-rule:evenodd;clip-rule:evenodd;stroke-linejoin:round;stroke-miterlimit:2;">
    <rect id="SpadesQueen" x="0" y="0" width="500" height="700" style="fill:none;"/>
    <path d="M412.676,500.729c-1.137,-4.725 -2.887,-8.947 -5.25,-12.666c-2.362,-3.718 -6.573,-8.323 -12.632,-13.814c-6.06,-5.49 -9.899,-9.701 -11.518,-12.632c-1.618,-2.932 -2.428,-5.907 -2.428,-8.925c0,-4.2 1.4,-7.7 4.2,-10.5c2.8,-2.8 6.213,-4.2 10.238,-4.2c3.412,-0 6.508,1.06 9.286,3.182c2.778,2.122 5.239,5.218 7.382,9.286c-0.043,-6.431 -0.885,-11.539 -2.526,-15.323c-1.641,-3.785 -4.266,-6.76 -7.875,-8.925c-3.609,-2.166 -8.411,-3.445 -14.405,-3.839l-0.459,-2.428l52.04,-0l-0.525,2.428c-8.05,-0 -14.295,2.351 -18.735,7.054c-4.441,4.704 -6.574,11.715 -6.399,21.033c1.969,-4.156 4.408,-7.273 7.317,-9.351c2.91,-2.078 6.202,-3.117 9.877,-3.117c3.937,-0 7.317,1.421 10.139,4.265c2.822,2.844 4.233,6.256 4.233,10.238c-0,3.193 -0.722,6.081 -2.166,8.662c-1.969,3.588 -5.162,7.197 -9.581,10.828c-4.419,3.632 -7.678,6.628 -9.778,8.991c-3.194,3.631 -5.524,6.869 -6.989,9.712c-1.466,2.844 -2.614,6.191 -3.446,10.041Z" style="fill-rule:nonzero;"/>
    <path d="M428.627,583.131c-5.465,-0.627 -10.931,-3.136 -16.397,-7.526c-3.404,-2.688 -7.75,-6.989 -13.036,-12.903l-0,60.346c-0,3.226 1.545,6.138 4.636,8.736c3.092,2.598 6.429,3.898 10.013,3.898c3.584,-0 6.944,-1.3 10.08,-3.898c3.136,-2.598 4.704,-5.51 4.704,-8.736l0,-39.917Zm-22.848,-33.3l17.338,17.139c1.433,1.451 3.27,2.359 5.51,2.721l0,-9.794c0,-3.174 -1.568,-6.076 -4.704,-8.706c-3.136,-2.63 -6.496,-3.945 -10.08,-3.945c-2.777,0 -5.465,0.862 -8.064,2.585Zm-29.702,-14.277c5.286,-0 9.094,0.224 11.424,0.672c2.688,0.627 5.286,1.881 7.795,3.763c5.645,-4.57 11.827,-6.855 18.547,-6.855c7.258,0 13.754,2.599 19.488,7.796c6.003,5.376 9.005,11.648 9.005,18.816l-0,9.945l7.392,0l-0,12.903c-0.269,0.089 -2.733,0.268 -7.392,0.537l-0,39.917c-0,7.258 -3.002,13.574 -9.005,18.95c-5.734,5.197 -12.23,7.796 -19.488,7.796c-7.257,-0 -13.821,-2.644 -19.689,-7.93c-5.869,-5.286 -8.804,-11.558 -8.804,-18.816l0,-63.302c0,-3.047 0.628,-6.048 1.882,-9.005c-1.254,-0.807 -2.419,-1.344 -3.494,-1.613l-7.661,-0l-0,-13.574Z" style="fill-rule:nonzero;"/>
    <path d="M87.164,199.275c1.138,4.725 2.888,8.947 5.25,12.665c2.363,3.719 6.574,8.324 12.633,13.815c6.06,5.491 9.899,9.702 11.518,12.633c1.619,2.931 2.428,5.906 2.428,8.925c0,4.2 -1.4,7.7 -4.2,10.5c-2.8,2.801 -6.213,4.201 -10.238,4.201c-3.412,-0 -6.508,-1.061 -9.286,-3.183c-2.778,-2.122 -5.239,-5.218 -7.383,-9.286c0.044,6.431 0.886,11.539 2.527,15.323c1.64,3.785 4.265,6.76 7.875,8.926c3.609,2.165 8.411,3.445 14.405,3.839l0.459,2.428l-52.042,-0l0.525,-2.428c8.051,-0 14.296,-2.352 18.737,-7.055c4.44,-4.703 6.573,-11.715 6.398,-21.033c-1.968,4.156 -4.408,7.273 -7.317,9.351c-2.909,2.078 -6.202,3.118 -9.877,3.118c-3.937,-0 -7.317,-1.422 -10.139,-4.266c-2.822,-2.844 -4.233,-6.257 -4.233,-10.238c-0,-3.194 0.722,-6.081 2.166,-8.663c1.968,-3.587 5.162,-7.197 9.581,-10.828c4.419,-3.631 7.678,-6.628 9.778,-8.991c3.194,-3.631 5.524,-6.869 6.99,-9.713c1.465,-2.843 2.614,-6.19 3.445,-10.04Z" style="fill-rule:nonzero;"/>
    <path d="M71.373,116.87c5.466,0.628 10.932,3.136 16.398,7.527c3.404,2.688 7.75,6.989 13.037,12.903l-0,-60.347c-0,-3.226 -1.546,-6.138 -4.637,-8.737c-3.092,-2.598 -6.429,-3.897 -10.013,-3.897c-3.584,-0 -6.944,1.299 -10.081,3.897c-3.136,2.599 -4.704,5.511 -4.704,8.737l0,39.917Zm22.849,33.301l-17.338,-17.139c-1.434,-1.451 -3.271,-2.359 -5.511,-2.721l0,9.794c0,3.174 1.568,6.076 4.704,8.706c3.137,2.63 6.497,3.945 10.081,3.945c2.777,0 5.465,-0.862 8.064,-2.585Zm29.703,14.278c-5.287,0 -9.095,-0.224 -11.424,-0.672c-2.688,-0.627 -5.287,-1.881 -7.796,-3.763c-5.645,4.57 -11.827,6.854 -18.547,6.854c-7.258,0 -13.754,-2.598 -19.489,-7.795c-6.003,-5.376 -9.005,-11.648 -9.005,-18.816l0,-9.946l-7.392,-0l-0,-12.903c0.269,-0.09 2.733,-0.269 7.392,-0.538l0,-39.917c0,-7.258 3.002,-13.575 9.005,-18.951c5.735,-5.197 12.231,-7.796 19.489,-7.796c7.257,0 13.821,2.644 19.69,7.93c5.869,5.287 8.803,11.559 8.803,18.817l0,63.304c0,3.046 -0.627,6.048 -1.881,9.005c1.254,0.806 2.419,1.344 3.494,1.612l7.661,0l-0,13.575Z" style="fill-rule:nonzero;"/>
</svg>
