<?xml version="1.0" encoding="UTF-8" standalone="no"?>
<!DOCTYPE svg PUBLIC "-//W3C//DTD SVG 1.1//EN" "http://www.w3.org/Graphics/SVG/1.1/DTD/svg11.dtd">
<svg width="100%" height="100%" viewBox="0 0 500 700" version="1.1" xmlns="http://www.w3.org/2000/svg" xmlns:xlink="http://www.w3.org/1999/xlink" xml:space="preserve" xmlns:serif="http://www.serif.com/" style="fill-rule:evenodd;clip-rule:evenodd;stroke-linejoin:round;stroke-miterlimit:2;">
    <rect id="SpadesThree" x="0" y="0" width="500" height="700" style="fill:none;"/>
    <path d="M412.676,500.729c-1.137,-4.725 -2.887,-8.947 -5.25,-12.666c-2.362,-3.718 -6.573,-8.323 -12.632,-13.814c-6.06,-5.49 -9.899,-9.701 -11.518,-12.632c-1.618,-2.932 -2.428,-5.907 -2.428,-8.925c0,-4.2 1.4,-7.7 4.2,-10.5c2.8,-2.8 6.213,-4.2 10.238,-4.2c3.412,-0 6.508,1.06 9.286,3.182c2.778,2.122 5.239,5.218 7.382,9.286c-0.043,-6.431 -0.885,-11.539 -2.526,-15.323c-1.641,-3.785 -4.266,-6.76 -7.875,-8.925c-3.609,-2.166 -8.411,-3.445 -14.405,-3.839l-0.459,-2.428l52.04,-0l-0.525,2.428c-8.05,-0 -14.295,2.351 -18.735,7.054c-4.441,4.704 -6.574,11.715 -6.399,21.033c1.969,-4.156 4.408,-7.273 7.317,-9.351c2.91,-2.078 6.202,-3.117 9.877,-3.117c3.937,-0 7.317,1.421 10.139,4.265c2.822,2.844 4.233,6.256 4.233,10.238c-0,3.193 -0.722,6.081 -2.166,8.662c-1.969,3.588 -5.162,7.197 -9.581,10.828c-4.419,3.632 -7.678,6.628 -9.778,8.991c-3.194,3.631 -5.524,6.869 -6.989,9.712c-1.466,2.844 -2.614,6.191 -3.446,10.041Z" style="fill-rule:nonzero;"/>
    <path d="M414.381,533.941c8.601,-0 16.307,2.957 23.117,8.87c6.182,5.376 10.752,12.365 13.708,20.967l-13.738,4.838c-1.886,-5.607 -4.714,-10.191 -8.486,-13.751c-4.311,-4.093 -9.204,-6.14 -14.681,-6.14c-6.825,-0 -12.707,2.68 -17.645,8.042c-4.939,5.361 -7.408,11.437 -7.408,18.229c-0,6.7 2.112,12.15 6.335,16.35c4.223,4.2 9.749,6.3 16.578,6.3c3.144,0 5.615,-0.403 7.413,-1.209c1.798,-0.807 3.954,-2.375 6.47,-4.704l10.378,10.214l-33.465,31.45l32.256,-0l-0,-14.381l14.381,-0l-0,29.165l-73.517,-0l-0,-9.257l28.665,-27.124c-9.061,-1.703 -16.305,-5.939 -21.733,-12.708c-5.428,-6.768 -8.142,-14.814 -8.142,-24.136c0,-10.849 3.898,-20.397 11.693,-28.644c7.795,-8.248 17.069,-12.371 27.821,-12.371Z" style="fill-rule:nonzero;"/>
    <path d="M87.164,199.275c1.138,4.725 2.888,8.947 5.25,12.665c2.363,3.719 6.574,8.324 12.633,13.815c6.06,5.491 9.899,9.702 11.518,12.633c1.619,2.931 2.428,5.906 2.428,8.925c0,4.2 -1.4,7.7 -4.2,10.5c-2.8,2.801 -6.213,4.201 -10.238,4.201c-3.412,-0 -6.508,-1.061 -9.286,-3.183c-2.778,-2.122 -5.239,-5.218 -7.383,-9.286c0.044,6.431 0.886,11.539 2.527,15.323c1.64,3.785 4.265,6.76 7.875,8.926c3.609,2.165 8.411,3.445 14.405,3.839l0.459,2.428l-52.042,-0l0.525,-2.428c8.051,-0 14.296,-2.352 18.737,-7.055c4.44,-4.703 6.573,-11.715 6.398,-21.033c-1.968,4.156 -4.408,7.273 -7.317,9.351c-2.909,2.078 -6.202,3.118 -9.877,3.118c-3.937,-0 -7.317,-1.422 -10.139,-4.266c-2.822,-2.844 -4.233,-6.257 -4.233,-10.238c-0,-3.194 0.722,-6.081 2.166,-8.663c1.968,-3.587 5.162,-7.197 9.581,-10.828c4.419,-3.631 7.678,-6.628 9.778,-8.991c3.194,-3.631 5.524,-6.869 6.99,-9.713c1.465,-2.843 2.614,-6.19 3.445,-10.04Z" style="fill-rule:nonzero;"/>
    <path d="M85.62,166.062c-8.602,0 -16.308,-2.957 -23.117,-8.871c-6.183,-5.376 -10.753,-12.365 -13.709,-20.967l13.738,-4.838c1.886,5.607 4.715,10.191 8.486,13.751c4.311,4.094 9.205,6.141 14.682,6.141c6.825,-0 12.707,-2.681 17.646,-8.042c4.938,-5.362 7.407,-11.438 7.407,-18.23c0,-6.701 -2.111,-12.151 -6.334,-16.351c-4.224,-4.2 -9.75,-6.3 -16.579,-6.3c-3.145,-0 -5.616,0.403 -7.413,1.209c-1.798,0.807 -3.955,2.375 -6.471,4.705l-10.378,-10.215l33.466,-31.45l-32.256,-0l-0,14.381l-14.382,-0l0,-29.166l73.519,0l-0,9.257l-28.666,27.125c9.061,1.703 16.306,5.94 21.734,12.708c5.428,6.768 8.142,14.814 8.142,24.137c-0,10.849 -3.898,20.397 -11.693,28.645c-7.796,8.247 -17.07,12.371 -27.822,12.371Z" style="fill-rule:nonzero;"/>
</svg>
