<?xml version="1.0" encoding="UTF-8" standalone="no"?>
<!DOCTYPE svg PUBLIC "-//W3C//DTD SVG 1.1//EN" "http://www.w3.org/Graphics/SVG/1.1/DTD/svg11.dtd">
<svg width="100%" height="100%" viewBox="0 0 500 700" version="1.1" xmlns="http://www.w3.org/2000/svg" xmlns:xlink="http://www.w3.org/1999/xlink" xml:space="preserve" xmlns:serif="http://www.serif.com/" style="fill-rule:evenodd;clip-rule:evenodd;stroke-linejoin:round;stroke-miterlimit:2;">
    <rect id="SpadesSix" x="0" y="0" width="500" height="700" style="fill:none;"/>
    <path d="M412.676,500.729c-1.137,-4.725 -2.887,-8.947 -5.25,-12.666c-2.362,-3.718 -6.573,-8.323 -12.632,-13.814c-6.06,-5.49 -9.899,-9.701 -11.518,-12.632c-1.618,-2.932 -2.428,-5.907 -2.428,-8.925c0,-4.2 1.4,-7.7 4.2,-10.5c2.8,-2.8 6.213,-4.2 10.238,-4.2c3.412,-0 6.508,1.06 9.286,3.182c2.778,2.122 5.239,5.218 7.382,9.286c-0.043,-6.431 -0.885,-11.539 -2.526,-15.323c-1.641,-3.785 -4.266,-6.76 -7.875,-8.925c-3.609,-2.166 -8.411,-3.445 -14.405,-3.839l-0.459,-2.428l52.04,-0l-0.525,2.428c-8.05,-0 -14.295,2.351 -18.735,7.054c-4.441,4.704 -6.574,11.715 -6.399,21.033c1.969,-4.156 4.408,-7.273 7.317,-9.351c2.91,-2.078 6.202,-3.117 9.877,-3.117c3.937,-0 7.317,1.421 10.139,4.265c2.822,2.844 4.233,6.256 4.233,10.238c-0,3.193 -0.722,6.081 -2.166,8.662c-1.969,3.588 -5.162,7.197 -9.581,10.828c-4.419,3.632 -7.678,6.628 -9.778,8.991c-3.194,3.631 -5.524,6.869 -6.989,9.712c-1.466,2.844 -2.614,6.191 -3.446,10.041Z" style="fill-rule:nonzero;"/>
    <path d="M448.922,582.728l0.134,-0c0.179,-0.358 0.269,2.822 0.269,9.542c-0,15.77 -2.151,28.448 -6.451,38.036c-6.093,13.171 -16.084,19.756 -29.972,19.756c-6.809,0 -13.126,-1.836 -18.95,-5.51c-5.555,-3.584 -10.08,-8.422 -13.574,-14.515l12.499,-7.527c4.838,8.512 11.513,12.768 20.025,12.768c11.111,0 18.01,-8.288 20.698,-24.864c-6.182,5.466 -13.037,8.199 -20.563,8.199c-11.111,-0 -20.16,-4.615 -27.149,-13.843c-6.272,-8.333 -9.408,-18.279 -9.408,-29.837c-0,-10.752 3.36,-20.25 10.08,-28.493c7.168,-8.691 15.994,-13.037 26.477,-13.037c5.197,0 10.617,1.703 16.262,5.107c6.003,3.584 10.797,10.17 14.381,19.757c2.778,7.437 4.525,15.591 5.242,24.461Zm-35.885,-34.541c-6.451,0 -11.827,2.95 -16.128,8.85c-4.032,5.363 -6.048,11.351 -6.048,17.965c-0,7.419 1.837,13.854 5.51,19.307c4.122,6.347 9.677,9.52 16.666,9.52c5.107,-0 9.721,-2.459 13.843,-7.375c3.405,-4.111 5.914,-8.937 7.526,-14.48c-0.806,-8.224 -2.598,-15.284 -5.376,-21.183c-3.942,-8.402 -9.273,-12.604 -15.993,-12.604Z" style="fill-rule:nonzero;"/>
    <path d="M87.164,199.275c1.138,4.725 2.888,8.947 5.25,12.665c2.363,3.719 6.574,8.324 12.633,13.815c6.06,5.491 9.899,9.702 11.518,12.633c1.619,2.931 2.428,5.906 2.428,8.925c0,4.2 -1.4,7.7 -4.2,10.5c-2.8,2.801 -6.213,4.201 -10.238,4.201c-3.412,-0 -6.508,-1.061 -9.286,-3.183c-2.778,-2.122 -5.239,-5.218 -7.383,-9.286c0.044,6.431 0.886,11.539 2.527,15.323c1.64,3.785 4.265,6.76 7.875,8.926c3.609,2.165 8.411,3.445 14.405,3.839l0.459,2.428l-52.042,-0l0.525,-2.428c8.051,-0 14.296,-2.352 18.737,-7.055c4.44,-4.703 6.573,-11.715 6.398,-21.033c-1.968,4.156 -4.408,7.273 -7.317,9.351c-2.909,2.078 -6.202,3.118 -9.877,3.118c-3.937,-0 -7.317,-1.422 -10.139,-4.266c-2.822,-2.844 -4.233,-6.257 -4.233,-10.238c-0,-3.194 0.722,-6.081 2.166,-8.663c1.968,-3.587 5.162,-7.197 9.581,-10.828c4.419,-3.631 7.678,-6.628 9.778,-8.991c3.194,-3.631 5.524,-6.869 6.99,-9.713c1.465,-2.843 2.614,-6.19 3.445,-10.04Z" style="fill-rule:nonzero;"/>
    <path d="M51.078,117.274l-0.134,-0c-0.179,0.358 -0.269,-2.823 -0.269,-9.543c0,-15.77 2.151,-28.449 6.452,-38.036c6.093,-13.172 16.083,-19.757 29.971,-19.757c6.81,-0 13.127,1.836 18.951,5.51c5.556,3.584 10.081,8.423 13.575,14.516l-12.499,7.526c-4.839,-8.512 -11.514,-12.768 -20.027,-12.768c-11.11,-0 -18.01,8.288 -20.698,24.865c6.183,-5.466 13.038,-8.199 20.564,-8.199c11.111,-0 20.161,4.614 27.15,13.843c6.272,8.333 9.408,18.279 9.408,29.838c-0,10.752 -3.36,20.25 -10.08,28.494c-7.169,8.691 -15.994,13.037 -26.478,13.037c-5.197,-0 -10.618,-1.703 -16.263,-5.108c-6.003,-3.584 -10.797,-10.17 -14.381,-19.757c-2.778,-7.437 -4.525,-15.591 -5.242,-24.461Zm35.886,34.541c6.451,0 11.828,-2.95 16.128,-8.849c4.033,-5.364 6.049,-11.353 6.049,-17.966c-0,-7.419 -1.837,-13.855 -5.511,-19.308c-4.122,-6.347 -9.677,-9.52 -16.666,-9.52c-5.107,0 -9.722,2.459 -13.843,7.376c-3.405,4.11 -5.914,8.937 -7.527,14.48c0.806,8.223 2.598,15.284 5.376,21.183c3.943,8.403 9.274,12.604 15.994,12.604Z" style="fill-rule:nonzero;"/>
</svg>
