<?xml version="1.0" encoding="UTF-8" standalone="no"?>
<!DOCTYPE svg PUBLIC "-//W3C//DTD SVG 1.1//EN" "http://www.w3.org/Graphics/SVG/1.1/DTD/svg11.dtd">
<svg width="100%" height="100%" viewBox="0 0 500 700" version="1.1" xmlns="http://www.w3.org/2000/svg" xmlns:xlink="http://www.w3.org/1999/xlink" xml:space="preserve" xmlns:serif="http://www.serif.com/" style="fill-rule:evenodd;clip-rule:evenodd;stroke-linejoin:round;stroke-miterlimit:2;">
    <rect id="SpadesNine" x="0" y="0" width="500" height="700" style="fill:none;"/>
    <path d="M412.676,500.729c-1.137,-4.725 -2.887,-8.947 -5.25,-12.666c-2.362,-3.718 -6.573,-8.323 -12.632,-13.814c-6.06,-5.49 -9.899,-9.701 -11.518,-12.632c-1.618,-2.932 -2.428,-5.907 -2.428,-8.925c0,-4.2 1.4,-7.7 4.2,-10.5c2.8,-2.8 6.213,-4.2 10.238,-4.2c3.412,-0 6.508,1.06 9.286,3.182c2.778,2.122 5.239,5.218 7.382,9.286c-0.043,-6.431 -0.885,-11.539 -2.526,-15.323c-1.641,-3.785 -4.266,-6.76 -7.875,-8.925c-3.609,-2.166 -8.411,-3.445 -14.405,-3.839l-0.459,-2.428l52.04,-0l-0.525,2.428c-8.05,-0 -14.295,2.351 -18.735,7.054c-4.441,4.704 -6.574,11.715 -6.399,21.033c1.969,-4.156 4.408,-7.273 7.317,-9.351c2.91,-2.078 6.202,-3.117 9.877,-3.117c3.937,-0 7.317,1.421 10.139,4.265c2.822,2.844 4.233,6.256 4.233,10.238c-0,3.193 -0.722,6.081 -2.166,8.662c-1.969,3.588 -5.162,7.197 -9.581,10.828c-4.419,3.632 -7.678,6.628 -9.778,8.991c-3.194,3.631 -5.524,6.869 -6.989,9.712c-1.466,2.844 -2.614,6.191 -3.446,10.041Z" style="fill-rule:nonzero;"/>
    <path d="M391.802,576.142c6.272,-5.017 13.35,-7.526 21.235,-7.526c10.573,-0 19.398,4.166 26.477,12.499c6.809,8.064 10.214,17.427 10.214,28.09c-0,10.752 -3.405,20.115 -10.214,28.089c-7.079,8.423 -15.904,12.634 -26.477,12.634c-13.082,0 -22.893,-6.765 -29.434,-20.294c-5.017,-10.484 -7.526,-23.072 -7.526,-37.767c-0,-15.411 2.464,-28.179 7.392,-38.304c6.451,-13.35 16.576,-20.025 30.374,-20.025c13.44,-0 24.103,6.899 31.987,20.697l-12.633,7.392c-5.018,-8.87 -11.469,-13.305 -19.354,-13.305c-11.737,-0 -19.085,9.273 -22.041,27.82Zm21.302,59.002c6.471,-0 11.863,-2.771 16.176,-8.312c4.045,-5.093 6.067,-10.946 6.067,-17.56c0,-6.614 -2.022,-12.467 -6.067,-17.56c-4.313,-5.541 -9.705,-8.312 -16.176,-8.312c-5.482,-0 -10.246,2.1 -14.291,6.3c-3.595,3.753 -6.066,8.445 -7.415,14.076c2.607,20.912 9.842,31.368 21.706,31.368Z" style="fill-rule:nonzero;"/>
    <path d="M87.164,199.275c1.138,4.725 2.888,8.947 5.25,12.665c2.363,3.719 6.574,8.324 12.633,13.815c6.06,5.491 9.899,9.702 11.518,12.633c1.619,2.931 2.428,5.906 2.428,8.925c0,4.2 -1.4,7.7 -4.2,10.5c-2.8,2.801 -6.213,4.201 -10.238,4.201c-3.412,-0 -6.508,-1.061 -9.286,-3.183c-2.778,-2.122 -5.239,-5.218 -7.383,-9.286c0.044,6.431 0.886,11.539 2.527,15.323c1.64,3.785 4.265,6.76 7.875,8.926c3.609,2.165 8.411,3.445 14.405,3.839l0.459,2.428l-52.042,-0l0.525,-2.428c8.051,-0 14.296,-2.352 18.737,-7.055c4.44,-4.703 6.573,-11.715 6.398,-21.033c-1.968,4.156 -4.408,7.273 -7.317,9.351c-2.909,2.078 -6.202,3.118 -9.877,3.118c-3.937,-0 -7.317,-1.422 -10.139,-4.266c-2.822,-2.844 -4.233,-6.257 -4.233,-10.238c-0,-3.194 0.722,-6.081 2.166,-8.663c1.968,-3.587 5.162,-7.197 9.581,-10.828c4.419,-3.631 7.678,-6.628 9.778,-8.991c3.194,-3.631 5.524,-6.869 6.99,-9.713c1.465,-2.843 2.614,-6.19 3.445,-10.04Z" style="fill-rule:nonzero;"/>
    <path d="M108.2,123.859c-6.272,5.018 -13.351,7.527 -21.236,7.527c-10.573,-0 -19.399,-4.167 -26.477,-12.5c-6.81,-8.064 -10.215,-17.427 -10.215,-28.09c-0,-10.752 3.405,-20.116 10.215,-28.09c7.078,-8.423 15.904,-12.634 26.477,-12.634c13.082,0 22.893,6.765 29.434,20.295c5.018,10.483 7.527,23.072 7.527,37.767c-0,15.412 -2.464,28.18 -7.392,38.305c-6.452,13.351 -16.577,20.026 -30.375,20.026c-13.441,0 -24.103,-6.899 -31.988,-20.698l12.634,-7.392c5.017,8.871 11.469,13.306 19.354,13.306c11.738,-0 19.085,-9.274 22.042,-27.822Zm-21.303,-59.003c-6.471,0 -11.863,2.771 -16.177,8.312c-4.045,5.094 -6.067,10.947 -6.067,17.561c0,6.614 2.022,12.467 6.067,17.561c4.314,5.541 9.706,8.312 16.177,8.312c5.482,-0 10.246,-2.1 14.291,-6.301c3.595,-3.753 6.067,-8.445 7.415,-14.076c-2.607,-20.912 -9.842,-31.369 -21.706,-31.369Z" style="fill-rule:nonzero;"/>
</svg>
